<?xml version="1.0" encoding="utf-8"?>
<!-- Generator: Adobe Illustrator 28.1.0, SVG Export Plug-In . SVG Version: 6.00 Build 0)  -->
<svg version="1.1" id="_x2018_ëîé_x5F_1" xmlns="http://www.w3.org/2000/svg" xmlns:xlink="http://www.w3.org/1999/xlink"
	 x="0px" y="0px" viewBox="0 0 4000 4000" style="enable-background:new 0 0 4000 4000;" xml:space="preserve">
<style type="text/css">
	.st0{fill:#FFFFFF00;stroke:#FFFFFF;stroke-miterlimit:10;}
	.st1{fill:#9B6745;}
	.st2{fill:#563620;}
	.st3{fill:#C18844;}
	.st4{fill:#D6A35F;}
	.st5{fill:#BA6817;}
	.st6{fill:#543D28;}
	.st7{fill:#774C2F;}
</style>
<rect class="st0" width="4000" height="4000"/>
<g>
	<path class="st1" d="M1798.77,2395.66c0,0-887.82,10.7-1037.9,66.2c-150.08,55.51-25.47,76.58-56.13,143.18
		c-30.66,66.61-144.06,56.54-194.17,103.44c-50.11,46.9,81.39,140.85,81.39,140.85s-156.56,58.67-43.81,104.5
		s1156.32,77.14,1151.26,39.56c-5.05-37.58-487.95-81.42-309.13-125.27c178.81-43.84,478.57,0,760.87,12.53
		c282.3,12.53,471.14,12.53,483.2-12.53c12.06-25.05,274-133.39,227.59-60.43c-46.41,72.96-146.63,54.17-46.41,72.96
		c100.22,18.79,701.51-64.49,607.55-72.96c-93.95-8.47-131.34-27.87-172.15-46.35c-40.81-18.49,348.59-47.87,182.08-136.53
		s-909.48-120.63-1006.72-127.79s-213.4-26.7-275.13-38.18C2089.42,2447.37,1798.77,2395.66,1798.77,2395.66z"/>
	<path class="st2" d="M1489.75,2625.94c0,0-102.3-37.58-160.76-50.11s-98.13-15.23-58.46-34.76s62.63-27.88,127.36-23.7
		c64.72,4.18,89.78,2.09,119.01-2.09c29.23-4.18,31.32-4.18,68.9-4.18c37.58,0,626.34,26.53,659.75,29.97
		c33.41,3.44,12.53-22.23,48.02,0s39.67,26.4,70.99,27.45c31.32,1.04,68.9-19.83,60.55,0s8.35,51.28-45.93,49.13
		s-83.51-2.02-112.74,0c-29.23,2.02-90.58,16.64-90.58,16.64L1489.75,2625.94z"/>
	<path class="st3" d="M2215.79,2038.22c0,0,46.98,161.28,134.66,178.51c87.69,17.22,112.74-43.84,114.31-50.11
		c1.57-6.26-20.18-114.31-50.02-142.49c-29.84-28.19-115.96-87.69-134.75-89.25C2261.2,1933.3,2215.79,2038.22,2215.79,2038.22z"/>
	<path class="st3" d="M2502.34,2172.88c0,0-22.97,240.1-22.97,273.5s-4.18,73.07-31.32,83.51c-27.14,10.44-79.34,18.79-104.39,0
		c-25.05-18.79-18.79-41.76,0-52.2c18.79-10.44,50.11-22.97,50.11-22.97l20.97-12.53l-8.44-269.33H2502.34z"/>
	<path class="st4" d="M1489.75,2625.94c0,0,480.2-626.34,494.81-680.63c14.61-54.28,131.53-260.98,212.96-315.26
		s371.63-10.44,421.74,52.2c50.11,62.63,100.22,146.15,89.78,244.27c-10.44,98.13-39.67,182.13,20.88,189.19
		c60.55,7.06,125.27,0.8,131.53,40.47c6.26,39.67-50.11,413.39-75.16,440.53c-25.05,27.14-127.36,58.46-154.5,41.76
		s-41.76-37.58-25.05-62.63c16.7-25.05,85.6-4.18,96.04-18.79c10.44-14.61,54.28-315.26,16.7-334.05
		c-37.58-18.79-106.48,70.99-217.13,18.79c-110.65-52.2-215.05-212.96-215.05-212.96s-70.99,428-85.6,501.08
		c-14.61,73.07-25.86,104.39-25.86,104.39s-258.09,35.49-445.99,27.14C1541.95,2653.08,1489.75,2625.94,1489.75,2625.94z"/>
	<path class="st4" d="M2201.34,1629.95c0,0,210.88-191.03,55.75-373.73c-155.12-182.7-274.05,5.17-320.59,10.34
		c-46.54,5.17-22.41-129.27,87.9-198.21c110.31-68.94,218.9-12.07,218.9-12.07s-55.16-26.72-75.84-28.44
		c-20.68-1.72-21.54-25.85-0.86-37.92c20.68-12.07,147.37-6.89,202.52,99.11c55.16,106,55.16,165.47,55.16,165.47
		s6.89-35.33,0-59.46c-6.89-24.13-3.45-37.06,8.62-38.78c12.07-1.72,46.54,60.33,29.3,185.29c-17.24,124.96-58.6,173.22-58.6,173.22
		s31.89-35.33,45.68-81.01c13.79-45.68,14.65-53.43,25.85-53.43c11.2,0,17.24,110.31-52.57,171.5
		c-69.81,61.19-118.07,90.49-118.07,90.49L2201.34,1629.95z"/>
	<path class="st5" d="M1893.24,2085.58c0,0,40.04,124.88,20.79,183.34s-104.85,154.5-125.73,185.82
		c-20.88,31.32-35.49,83.51-83.51,106.48c-48.02,22.97-208.7,56.43-208.7,56.43L1893.24,2085.58z"/>
	<path class="st5" d="M2061.81,1984.98c-29.23,16.7-58.46,46.88-54.28,92.34c4.18,45.46-8.35,78.86-8.35,114.36
		s87.69,45.93,114.83,0c27.14-45.93,22.97-50.11,35.49-103.35c12.53-53.24,6.26-92.91-6.26-103.35
		C2130.71,1974.54,2061.81,1984.98,2061.81,1984.98z"/>
	<path class="st5" d="M1798.77,2662.67c8.33-22.12,20.86-62.41,58.44-121.6c37.58-59.2,37.58-52.93,93.95-90.51
		c56.37-37.58,86.17-79.34,126.6-52.2c40.43,27.14-22.2,125.27-22.2,162.85s4.45,86.33,4.45,86.33l-155.82,15.16L1798.77,2662.67z"
		/>
	<path class="st6" d="M2232.18,1364.23c-22.57-55.99-59.81-109.42-122.92-119.96c-55.42-9.25-125.15,0.83-161.86,48.06
		c-1.44,1.85,0.84,4.34,2.65,2.65c42.81-40.03,102.09-49.53,158.66-38.72c61.24,11.7,87.99,62.07,119.99,109.45
		C2229.81,1367.37,2233.03,1366.36,2232.18,1364.23z"/>
	<path class="st6" d="M2150.53,1309.64c-24.15-26.07-64.94-32.19-97.73-22.29c-1.59,0.48-0.93,2.81,0.68,2.48
		c35.44-7.33,65.4,3.55,94.2,23.5C2149.96,1314.9,2152.28,1311.53,2150.53,1309.64z"/>
	<path class="st6" d="M2541.16,1190.86c-20.69-69.38-61.78-132.64-122.93-172.61c-1.64-1.07-3.09,1.5-1.52,2.6
		c60.55,42.42,100.96,108.07,119.77,178.92c10.81,40.72,14.63,83.15,13.73,125.2c-0.92,43.1-8.93,84.96-13.94,127.61
		c-0.34,2.91,4.2,3.32,4.97,0.67c12.63-42.89,16.64-89.72,16.95-134.26C2558.49,1275.78,2553.53,1232.35,2541.16,1190.86z"/>
	<path class="st6" d="M2568.16,1178.43c-0.8-1.56-3.11-0.19-2.35,1.37c20.74,42.48,27.65,88.1,27.47,135.01
		c-0.01,1.6,2.24,1.5,2.42,0C2601.54,1267.48,2589.7,1220.53,2568.16,1178.43z"/>
	<path class="st7" d="M1442.84,2429.65c-11.1,1.19-21.9,2.82-33.05,3.56c-4.9,0.33-9.74,1.05-14.44,2.28
		c-4.39-10.13-14.41-15.82-25.41-16.74c-13.65-1.14-25.74-3.47-39.52-2.09c-11.86,1.18-22.43,3.39-33.23,7.22
		c-0.23,0.02-0.46,0.04-0.69,0.06c-0.62,0.06-1.22,0.15-1.81,0.24c-5.08-8.16-12.83-14.77-22.05-17.71
		c-21.17-6.77-50.95-0.9-65.82,15.97c-7.08-9.94-17.45-17.75-28.83-21.58c-16.92-5.69-31.75-6.31-49.31-3.83
		c16.39-2.31-3.55,0.03-12.67,1.91c-4.98,1.03-9.89,2.14-14.91,2.96c-12.07,1.98-25.53,3.52-36.06,10.3
		c-22.02,14.19-34.88,39.71-28.05,65.95c10.36,39.87,54.58,53.24,91.3,49.21c37.62-4.12,66.58-20.24,81.78-53.8
		c7.06,6.02,16.22,9.97,24.86,11.94c21.48,4.91,38.19-0.95,54.61-15.03c0.22-0.19,0.42-0.4,0.64-0.59c0.03,0.01,0.07,0.03,0.1,0.05
		c6.99,2.85,12.7,7.87,20.45,10.1c8.13,2.34,16.87,3.65,25.37,3.81c17.92,0.33,31.97-6.33,47.81-13.51
		c6.18-2.8,10.39-8.9,12.35-15.65c12.68,2.06,25.22,2.46,37.66,7.9C1464.04,2475.77,1468.27,2426.92,1442.84,2429.65z"/>
	<path class="st7" d="M965.42,2555.43c-1.64-5.08-4.49-9.99-8.63-13.45c-0.28-0.53-0.53-1.08-0.85-1.59
		c-4.36-6.9-10.43-10.82-17.5-13.69c-7.72-3.98-16.62-5.48-25.25-2.69c-8.82,2.85-16.46,8.18-21.23,16.33
		c-11.07,18.92-1.4,47.31,21.23,52.19c7.85,1.69,15.59,2.38,23.39,0c3.33-1.01,6.17-2.3,8.83-3.86c0.47-0.15,0.93-0.28,1.4-0.46
		c6.69-2.69,12.14-5.78,15.92-12.24C966.07,2570.25,967.49,2561.84,965.42,2555.43z"/>
	<path class="st7" d="M1588.89,2383.17c-1.89-6.75-5.31-12.61-10.24-17.58c-2.69-2.08-5.37-4.15-8.06-6.23
		c-6.21-3.6-12.91-5.42-20.1-5.44c-5.48-0.21-10.6,0.94-15.35,3.43c-4.94,1.61-9.21,4.35-12.82,8.24
		c-3.88,3.61-6.63,7.88-8.24,12.82c-2.49,4.75-3.64,9.86-3.43,15.35c0.47,3.53,0.95,7.06,1.42,10.59
		c1.89,6.75,5.31,12.61,10.24,17.58c2.69,2.08,5.37,4.15,8.06,6.23c6.21,3.6,12.91,5.42,20.1,5.44c5.48,0.21,10.6-0.94,15.35-3.43
		c4.94-1.61,9.21-4.35,12.82-8.24c3.88-3.61,6.63-7.88,8.24-12.82c2.49-4.75,3.64-9.86,3.43-15.35
		C1589.84,2390.23,1589.36,2386.7,1588.89,2383.17z"/>
	<path class="st7" d="M2374,2426.41c-0.02-0.1-0.04-0.15-0.06-0.24c-0.36-3.39-1.39-6.6-3.14-9.61c2.62,4.8,2.15,3.37-1.42-4.3
		c-10.43-17.82-35.49-22.42-52.35-12.56c-16.31-8.56-36.26-8.49-53.75,0.78c-2.73,1.14-5.41,2.36-8.06,3.67
		c-3.16,1.04-6.32,1.96-9.47,2.91c-30.01,3.68-54.81,40.81-34.82,68.41c2.74,3.83,5.61,7.57,8.58,11.22
		c-1.73-2.06-3.46-4.12-5.2-6.17c3.14,5.81,7.42,10.48,12.85,14c2.32,1.81,4.66,3.61,7.01,5.39c2.41,1.52,4.97,2.87,7.58,4.13
		c0.05,0.78,0.09,1.56,0.19,2.34c2.84,21.16,29.06,37.28,48.42,23.79c2.25-1.57,4.44-3.23,6.5-5.01c3.62,2.07,7.65,3.29,12.01,3.29
		c6.29,0,12.89-2.74,17.34-7.18c2.39-2.22,4.08-4.85,5.07-7.89c1.54-2.92,2.24-6.07,2.11-9.45c-0.22-4.93-1.55-9.98-4.38-14.07
		c0.58-0.54,1.18-1.06,1.75-1.63c9.13-8.98,14.27-20.62,15.59-32.66c2.28-0.46,4.65-0.96,0.02-0.26c0-0.01,0-0.02,0-0.03
		c5.04-0.88,9.03-2.01,12.88-4.19c0.26-0.03,0.48-0.06,0.77-0.1c2.19-0.48,4.13-1.41,5.82-2.79c4.08-2.68,6.84-6.44,8.14-11.17
		C2374.96,2433.5,2374.96,2429.96,2374,2426.41z"/>
	<path class="st7" d="M2538.9,2547.01c-2.03-7.22-5.68-13.5-10.97-18.82c-5.32-5.29-11.59-8.94-18.82-10.97
		c-8.94-1.53-13.68-2.37-22.04-0.4c-2.55,0.34-5.11,0.69-7.66,1.03c-5.44,1.29-10.19,3.79-14.23,7.49c-3.14,1.86-5.64,4.36-7.5,7.5
		c-3.7,4.04-6.19,8.78-7.49,14.23c-1.68,7.35-1.68,14.89,0,22.24c1.29,5.44,3.79,10.19,7.49,14.23c2.95,4.55,6.86,8.15,11.74,10.77
		c5.95,4.56,12.81,5.49,19.8,6.43c2.93,0.39,5.11,0.87,7.84,0.78c12.25-0.41,21.91-4.78,30.86-13.02
		C2538.99,2578.32,2542.82,2561.22,2538.9,2547.01z"/>
	<path class="st7" d="M2618.15,2598.84c-3.16-9.77-8.9-16.56-17.28-22.47c-7.11-5.02-16.34-7.83-25.02-7.38
		c-6.91,0.36-13.02,1.97-18.63,4.95c-9.04-0.65-17.91,5.09-21.42,13.41c-3.31,7.85-1.71,15.46,2.96,21.51
		c0.7,6.08,2.97,12.01,6.3,17.14c6.5,9.99,15.69,15.5,26.83,19.1c17.85,5.77,37.41-5.31,44.36-21.77
		C2619.4,2615.85,2620.71,2606.77,2618.15,2598.84z"/>
	<path class="st7" d="M2396.5,2509.32c-2.8-5.3-8.02-8.23-13.35-10.27c-5.86-2.24-11.34-2.87-17.66-1.31
		c-2.36,0.58-4.69,1.35-7.03,2.03c-8.79,2.54-16.28,11.34-15.86,20.83c0.43,9.61,6.42,18.1,15.86,20.83
		c2.33,0.67,4.67,1.47,7.03,2.03c6.14,1.44,11.85,0.9,17.66-1.31c4.69-1.79,8.46-3.94,11.6-8.01c2.91-3.77,5.02-8.64,4.8-13.54
		C2399.37,2516.62,2398.36,2512.82,2396.5,2509.32z"/>
	<path class="st7" d="M2605.89,2497.1c-0.35-2.62-0.7-5.24-1.06-7.86c-3.68-8.7-3.98-9.42-0.89-2.15
		c-3.34-17.33-20.6-26.06-36.3-27.64c-10.95-1.1-21.54-1.1-31.85,3.25c-16.7,7.05-28.53,23.95-23.76,42.55
		c6.61,25.74,32.65,31.79,55.6,29.49c15.54-1.56,32.93-10.47,36.28-27.55C2605.33,2504.04,2606.02,2500.68,2605.89,2497.1z"/>
	<path class="st7" d="M2653.09,2490.41c-5.65-5.34-11.87-9.43-19.98-9.39c-14.56,0.08-30.77,12.05-23.72,27.82
		c6.82,15.25,29.17,18.92,43.12,12.73c4.92-2.18,8.97-9.39,8.44-14.71C2660.25,2499.98,2658.17,2495.21,2653.09,2490.41z"/>
	<path class="st7" d="M2696.63,2484.55c-34.29,0-34.35,53.29,0,53.29C2730.92,2537.84,2730.98,2484.55,2696.63,2484.55z"/>
	<path class="st7" d="M3106.09,2528.49c-7.69-14.54-22.21-24.23-37.61-29.15c-8.16-2.61-18.29-2.88-26.33-4.17
		c17.18,2.76-13.94-1.86-19.81-1.07c-31.67,4.26-63.51,30.46-71.17,61.82c-3.52,14.4-0.32,31,10.94,41.39
		c27.26,25.17,77.02,34.42,107.82,10.63c7.71-6.64,8.59-6.82,2.62-0.55c1.61-0.75,3.22-1.49,4.83-2.24
		c6.72-2.44,14.51-9.24,19.29-14.45C3112.56,2573.37,3117.32,2549.71,3106.09,2528.49z"/>
	<path class="st7" d="M2948.33,2586.35c-0.25-5.51-2.62-11.49-6.64-15.67c-3.65-7.1-8.7-13.08-16.3-17.16
		c-5.99-3.21-13.44-5.93-20.27-5.63c-4.78,0.21-9.65,1.29-14.4,1.94c-3.01,1.27-6.03,2.54-9.04,3.82
		c-4.41,2.38-7.95,5.63-10.62,9.75c-4.93,6.39-8.5,14.65-8.13,22.94c0.3,6.72,2.03,13.16,5.17,19.11
		c3.78,7.16,14.29,16.26,22.63,17.4c4.39,0.6,10.83,2.1,14.4,1.94c7.21-0.32,13.9-2.09,20.27-5.63
		c7.91-4.39,12.86-10.18,16.47-17.39C2945.94,2597.6,2948.57,2591.69,2948.33,2586.35z"/>
	<path class="st7" d="M3284.14,2628.87c-1.64-5.84-4.59-10.9-8.86-15.2c-2.32-1.8-4.65-3.59-6.97-5.39
		c-5.37-3.12-11.17-4.68-17.39-4.7c-4.74-0.18-9.17,0.81-13.27,2.97c-4.27,1.39-7.97,3.76-11.09,7.12
		c-3.36,3.12-5.73,6.82-7.12,11.09c-2.16,4.11-3.15,8.53-2.97,13.27l1.23,9.16c1.64,5.84,4.59,10.9,8.86,15.2
		c2.32,1.8,4.65,3.59,6.97,5.39c5.37,3.12,11.17,4.68,17.39,4.7c4.74,0.18,9.17-0.81,13.27-2.97c4.27-1.39,7.97-3.76,11.09-7.12
		c3.36-3.12,5.73-6.82,7.12-11.09c2.16-4.11,3.15-8.53,2.97-13.27C3284.96,2634.97,3284.55,2631.92,3284.14,2628.87z"/>
	<path class="st7" d="M1387.87,2612.05c-11.16-40.15-48.64-56.79-87.19-58.73c-24.44-1.23-50.91,4.54-75.07,8.57
		c-26.49,4.42-57.29,13.02-70.83,37.11c-1.62,2.02-3.06,4.17-4.32,6.42c-0.21,0.17-0.41,0.38-0.62,0.53
		c-16.76,12.39-22.83,41.96,0,52.98c2.85,1.38,5.54,2.96,8.19,4.61c0.26,0.28,0.52,0.57,0.79,0.84
		c21.97,33.34,76.43,26.69,111.13,24.82c6.62-0.36,13.23-0.68,19.85-0.94c2.1-0.08,12.69-0.48,15.31-0.73
		c13.24,0.94,21.62,4.59,36.68,1.2c7.33-1.65,14.33-3.88,20.96-7.74l-2.71,0.73C1383.63,2669.37,1395.77,2640.48,1387.87,2612.05z"
		/>
	<path class="st7" d="M1500.9,2653.43c-20.6-9.61-44.17-16.42-66.94-17.34c-20.26-0.81-43.07,7.94-51.34,26.43
		c-0.99,0.98-1.92,2.02-2.96,2.95c-7.64,7.25-5.21,19.65,3.21,24.94c0.42,0.24,0.81,0.52,1.23,0.77
		c9.64,15.89,32.47,21.23,49.86,19.68c20.69-1.85,42.37-8.25,61.54-16.11C1511.3,2688.28,1520.56,2662.6,1500.9,2653.43z"/>
	<path class="st7" d="M1586.71,2690.45c-4.99-4.58-11.12-7.47-18.03-7.47c-6.54,0-13.41,2.84-18.03,7.47
		c-2.49,2.31-4.24,5.04-5.27,8.21c-1.6,3.04-2.33,6.31-2.2,9.82c0.29,6.59,2.46,13.43,7.47,18.03c4.99,4.58,11.12,7.47,18.03,7.47
		c6.54,0,13.41-2.84,18.03-7.47c2.49-2.31,4.24-5.04,5.27-8.21c1.6-3.04,2.33-6.31,2.2-9.82
		C1593.88,2701.89,1591.72,2695.05,1586.71,2690.45z"/>
	<path class="st7" d="M1074.32,2689.94c-6.24-6.15-14.38-10.83-23.01-12.76c-4.25-0.95-8.98-1.47-13.36-1.65
		c-4.57-0.18-9.61-1.86-0.35,1.07c-34.39-10.88-64.39,27.03-51.12,58.48c6,14.21,18.56,23.81,33.84,25.86
		c12.74,1.71,24.59-2.15,33.82-10.01c0.36-0.17,0.7-0.39,1.06-0.55c-0.29,0.12-0.54,0.23-0.81,0.34c0.01-0.01,0.02-0.01,0.02-0.02
		c1.53-0.65,3.58-1.51,6.16-2.6c5.09-2.59,9.76-5.82,13.74-9.98C1086.97,2724.9,1087.68,2703.11,1074.32,2689.94z"/>
	<g>
		<path class="st7" d="M2015.32,2685.4c-0.4-0.22-1.78-0.82-4.55-1.93C2012.35,2684.11,2013.85,2684.75,2015.32,2685.4z"/>
		<path class="st7" d="M2040.03,2702.33c-7.84-7.79-15.1-12.63-24.72-16.93c1.88,1.06-18.64-6.26-22.79-6.81
			c-16.35-2.2-32.55,0.75-48.64,4c-9.47,1.91-18.81,4.91-28.14,7.48c-4.89,1.35-9.54,2.66-14.27,4.51
			c-4.31,1.82-8.61,3.63-12.92,5.45c7.51-3.37,8.69-4.01,3.54-1.93c-27.94,10.87-45.7,41.42-28.51,70.07
			c2.6,4.55,5.71,8.76,9.33,12.62c12.05,8.95,13.62,10.35,4.7,4.18c3.65,2.82,7.3,5.64,10.95,8.46c5.34,2.41,10.73,4.71,16.17,6.89
			c14.93,4.73,31.65,6.31,47.24,7.17c43.87,2.39,85.65-16.8,99.97-60.12C2057.04,2731.94,2051.28,2713.51,2040.03,2702.33z"/>
	</g>
	<path class="st7" d="M2559.53,2708.57c-1.65-0.93-3.33-1.78-5.02-2.6c-7.01-6.69-14.76-10.95-23.35-14.52
		c-5.72-3.61-11.72-6.33-18.09-8.38c-15.36-8.76-34.72-12.6-51.33-15.63c-19.25-3.5-38.52-3.89-57.81-5.64
		c-0.72-0.32-1.44-0.64-2.16-0.96c-2-1.73-4.16-3.28-6.52-4.63c7.72,4.86,5.45,2.89-6.81-5.93c-14.25-5.96-16.94-7.11-8.05-3.45
		c-6.3-2.66-12.6-5.32-18.9-7.97c-22.05-5.79-43.39-3.73-65.29,1.23c-6.45,1.46-12.91,2.91-19.4,4.19
		c-1.62,0.32-8.88,1.57-13.09,2.31c-4.51,0.6-8.01,1.06-10.52,1.39c-6.83,0.63-13.63,1.47-20.4,2.6
		c-14.82,3.61-24.93,11.02-36.55,20.42c-11.09,8.97-16.52,22.13-17.46,35.93c-2.35-7.62-9.56-12.31-16.82-15.62
		c-2.92-0.93-2.97-0.97-0.14-0.12c-2.57-1.78-5.38-3.09-8.44-3.93c-4.02-0.92-8.46-1.23-12.58-1c-13.11,0.74-25.54,8.08-31.46,19.91
		c-4.49,8.97-3.56,19.01,3.41,26.42c3.09,3.29,6.67,5.91,10.57,7.83c-1,3.18-1.49,6.49-1.36,9.98c0.46,3.41,0.92,6.82,1.37,10.23
		c1.83,6.52,5.12,12.17,9.89,16.97c7.53,6.91,16.78,11.27,27.2,11.27c5.3,0.2,10.24-0.9,14.82-3.31c4.77-1.55,8.9-4.2,12.38-7.95
		c3.75-3.48,6.4-7.61,7.95-12.38c1.08-2.06,1.87-4.21,2.42-6.42c33.78,32.58,84.44,22.37,125.99,14.12
		c18.66-3.7,36.53-8.82,52.42-19.88c5.88-3.72,11.21-8.08,15.98-13.07c-7.82,4.4-5.56,2.33,6.8-6.23c3.28-3.95,5.62-6.82,7.06-8.66
		c4.08-0.03,8.17,0.21,12.25,0.61c-2.95,14.19-0.92,29.72,6.31,41.18c16.68,26.46,42.59,36.92,73.07,34.63
		c10.22-0.03,19.77-2.48,28.69-7.27c0.91-0.25,2.07-0.58,3.6-1.03c12.23-4.2,19.33-11.81,29.37-18.69
		C2582.38,2758.87,2586,2723.45,2559.53,2708.57z"/>
	<path class="st7" d="M1786.45,2718.79c-1.5-1.32-3.07-2.55-4.71-3.7c-2.42-2.21-5.13-3.92-8.08-5.21
		c-4.72-3.66-10.02-6.33-15.91-7.98c-8.14-2.19-16.29-2.19-24.43,0c-7.79,2.18-14.54,6.12-20.28,11.82
		c-0.14,0.12-0.28,0.25-0.41,0.37c0.02,0.01,0.03,0.03,0.05,0.04c-2.81,2.58-5.21,5.58-7.1,9.09c-1.52,3.59-3.03,7.18-4.55,10.77
		c-2.15,7.99-2.15,15.99,0,23.98c0.06,0.16,0.13,0.31,0.19,0.46c1.42,5.98,4.16,11.19,8.23,15.63c3.24,5,7.54,8.95,12.89,11.84
		c3.66,1.54,7.32,3.09,10.98,4.63c6.11,1.92,12.22,2.19,18.33,0.82c4.15-0.01,8.01-1.06,11.6-3.14c4.67-1.52,8.8-3.97,12.43-7.26
		c0.69-0.29,1.39-0.58,2.08-0.88c2.99-2.14,5.89-4.39,8.7-6.77c3.76-3.49,6.42-7.63,7.97-12.41c2.41-4.59,3.52-9.54,3.32-14.85
		C1797.3,2736.28,1794.14,2725.41,1786.45,2718.79z"/>
	<path class="st7" d="M2752.96,2749.72c-0.02,0.04-0.03,0.08-0.05,0.12c2.35-7.28,3.13-15.23,0.76-22.55
		c-2.94-9.1-8.95-19.6-18.13-23.58c-11.36-4.92-14.32-5.92-26.98-7.18c-3.98,0.54-7.96,1.07-11.94,1.6
		c-5.85,1.39-10.94,4.07-15.28,8.04c-7.23,5.58-14.31,14.06-16.1,23.34c-0.93,4.81-1.58,9.7-1.98,14.58
		c-0.8,9.85,5.2,23.32,12.39,29.91c7.98,7.32,18.73,13.09,29.91,12.39c1.01-0.06,1.98-0.06,3-0.02c3.98-0.53,7.96-1.07,11.94-1.6
		c5.85-1.39,10.94-4.07,15.28-8.04c7.52-5.81,13.78-13.87,16.1-23.34c0.22-0.9,0.47-1.77,0.74-2.64c0.07-0.19,0.13-0.38,0.19-0.58
		C2752.86,2750.02,2752.9,2749.87,2752.96,2749.72z"/>
	<path class="st7" d="M1177.89,2733.62c-7.09-12.05-19.4-18.01-33.32-16.14c-9.79,1.32-15.37,6.23-20.61,12.77
		c-4.73,2.21-8.92,4.93-11.6,9.75c-2.59,4.67-2.13,11.23,1.94,15c2.37,2.2,5.02,3.62,7.81,4.8c0.26,0.61,0.51,1.21,0.77,1.82
		c3.56,5.51,8.13,9.59,14.2,12.15c10.57,4.46,20.47,4.25,30.68-1.5C1181.02,2764.81,1185.55,2746.63,1177.89,2733.62z"/>
	<path class="st7" d="M928.9,2705.9c-11.02-24.8-38.38-35.79-63.39-41.86c-1.35-0.28-2.69-0.59-4.03-0.88
		c1.94,0.2-2.68-1.71-13.88-5.74c-8.48-2.81-17.13-4.37-26.16-4.05c-13.51,0.47-25.93,3.27-37.45,8.53
		c-2.83,0.59-5.72,1.11-8.44,1.96c-3.68,1.55-7.36,3.11-11.05,4.66c-1.32,1.03-2.5,1.96-3.56,2.78c0.62-0.6-0.15-0.44-2.33,0.49
		c-2.29,0.71-4.52,1.58-6.69,2.62c-2.47,1.15-4.73,2.42-6.83,3.88c-4.67,0.94-9.39,1.6-13.94,3c-7.98,2.46-13.68,7.3-22.61,5.01
		c-12.32-3.15-21.33-12.32-34.48-14.66c-28.27-5.03-71.34,0.55-81.17,32.3c-2.61,8.43,0.44,17.35,6.24,23.6
		c18.22,19.62,54.76,12.99,77.51,6.5c11.18-3.19,21.55-13.77,32.97-15.06c7.06-0.8,10.22,3.07,15.85,5.81
		c5.07,2.47,10.56,3.87,15.74,6.04c5.21,4.63,11.28,7.68,17.5,11.79c3.32,2.66,6.81,4.92,10.56,6.99
		c14.96,12.43,39.38,20.18,57.77,19.86c7.02-0.31,13.87-1.45,20.57-3.41c14.52-6.49,17.84-7.79,9.96-3.91
		c6.26-1.22,12.22-2.01,18.29-4.05c17.48-5.87,32.64-12.89,43.94-27.86C924.28,2724.32,932.43,2713.84,928.9,2705.9z"/>
	<path class="st7" d="M1000.12,2612.52c-9.41-3.77-20.44-0.52-28.83,5.28c-7.71,1.17-14.46,2.11-20.86,7.34
		c-4.52,3.7-4.5,12.68,0,16.37c6.39,5.23,13.14,6.17,20.85,7.34c8.39,5.8,19.41,9.06,28.84,5.28
		C1020.47,2645.97,1020.51,2620.7,1000.12,2612.52z"/>
	<path class="st7" d="M773.55,2610.95c-9.24-9.24-25.94-7.48-32.48,4.18c-0.07,0.13-0.15,0.26-0.22,0.4
		c-0.69,1.64-1.38,3.27-2.07,4.91c-0.86,2.73-0.98,5.46-0.37,8.19c0.58,4.31,2.35,8.76,5.65,11.79c2.62,2.41,5.67,4.19,9.06,5.28
		c5.3,1.72,11.04,0.27,15.82-2.07c0.14-0.07,0.28-0.14,0.42-0.2c6.19-3.03,10.54-11.08,10.24-17.85
		C779.36,2620.09,777.51,2614.91,773.55,2610.95z"/>
</g>
</svg>
