<?xml version="1.0" encoding="utf-8"?>
<!-- Generator: Adobe Illustrator 28.1.0, SVG Export Plug-In . SVG Version: 6.00 Build 0)  -->
<svg version="1.1" id="Layer_1" xmlns="http://www.w3.org/2000/svg" xmlns:xlink="http://www.w3.org/1999/xlink" x="0px" y="0px"
	 viewBox="0 0 500 500" style="enable-background:new 0 0 500 500;" xml:space="preserve">
<style type="text/css">
	.st0{fill:#FFFFFF00;}
	.st1{fill:#FEDBB7;}
	.st2{fill:#C75D32;}
	.st3{fill:#742919;}
	.st4{fill:#EEC499;}
</style>
<rect class="st0" width="500" height="500"/>
<g>
	<g>
		<g id="XMLID_5_">
			<g>
				<g>
					<path class="st1" d="M334.79,346.65c9.13,8.67,12.79,8.21,10.04,18.71c-2.73,10.5-3.64,23.74-9.58,25.11
						s-29.22,3.19-28.77-2.28c0.46-5.48,17.35-4.57,18.73-8.67c1.37-4.12,2.28-19.18-1.37-20.55c-1.72-0.65-14.58-0.79-28.36-6.06
						c-10.26-3.91-21.03-10.67-28.14-22.59c-3.57-5.96-6.21-13.2-7.41-22.02c0,0,9.58-10.5,11.42-17.8
						c1.82-7.31,32.41-31.51,38.35-35.16l0.56-0.38c6.38,9.57,10.35,21.41,10.84,35.08C322.46,327.48,325.65,337.97,334.79,346.65z"
						/>
				</g>
				<g>
					<path class="st2" d="M310.25,254.96l-0.56,0.38c-66.4,51.59-42.7,107.42-38.35,118.7l0.24,0.61c-2.35,0.97-3.89,1.68-3.89,1.68
						s-7.76-5.02-13.24-5.02c-5.49,0-10.5,4.57-10.5,4.57s-3.26-3.26-7.87-6.23l-3.76-2.06c-2.68-10.58,0.22-17.29,1.13-27.78
						c0.91-10.5,12.33-21.92,15.98-28.77c3.66-6.85-5.02-11.87-4.57-20.54c0.46-8.68,5.48-21.01,17.35-21.01
						c11.87,0,12.78-9.13,18.26-17.34c5.48-8.22,10.04-1.37,17.34-9.59l0.17-1.07C302.67,245.26,306.81,249.77,310.25,254.96z"/>
				</g>
				<g>
					<path class="st3" d="M297.98,241.49l-0.17,1.07c-58.27,49.11-59.35,117.26-61.63,126.92l-0.11,0.17
						c-3.82-2.46-8.56-4.72-13.12-4.72c-10.05,0-18.73,5.48-18.73,5.48s-8.22-11.88-16.89-14.16c0,0,10.95-4.11,15.52-52.05
						c4.18-43.92,22.93-72.13,50.28-75.84c2.5-0.35,5.07-0.48,7.7-0.4c4.73,0.13,9.37,0.79,13.84,1.93
						C283.23,232.05,291.17,236,297.98,241.49z"/>
				</g>
				<g>
					<path class="st1" d="M295.47,352.92l-0.39,1.03c0,0-2.74,11.88-1.83,15.98c-4.88-1.63-15.81,2.32-21.67,4.71l-0.24-0.61
						c-11.58-8.06-7.43-49.03-6.23-51.44l2.22,7.73C274.44,342.25,285.21,349.01,295.47,352.92z"/>
				</g>
				<g>
					<path class="st3" d="M275.7,173.52c3.27,17.4,3.85,36.97-1.02,56.36c-4.48-1.15-9.11-1.8-13.84-1.93
						c-2.63-0.08-5.21,0.06-7.7,0.4l-0.06-0.4c10.67-17.17,10.3-37.09,7.69-52.98l0.83-0.13c0,0,9.2,2.37,13.38-1.17L275.7,173.52z"
						/>
				</g>
				<g>
					<path class="st1" d="M275.7,173.52l-0.72,0.14c-4.18,3.54-13.38,1.17-13.38,1.17l-0.83,0.13c-1.03-6.35-2.44-12.07-3.63-16.7
						c-4.17-16.22-14.51-36.19-20.47-42.5c-5.96-6.33,1.56-15.09,16.86,3.66C261.09,128.68,271.07,148.94,275.7,173.52z"/>
				</g>
			</g>
		</g>
		<g>
			<g>
				<g>
					<path class="st1" d="M174.08,356.13c0,0,0.49-0.42,1.51-0.93c0.51-0.22,1.14-0.55,1.91-0.75c0.76-0.27,1.64-0.44,2.63-0.6
						c0.98-0.08,2.08-0.24,3.22-0.12c1.16,0.02,2.35,0.25,3.59,0.53c0.63,0.1,1.21,0.38,1.83,0.57c0.6,0.23,1.26,0.39,1.83,0.73
						c1.17,0.61,2.4,1.18,3.45,2l1.61,1.18c0.53,0.4,0.97,0.88,1.44,1.32c0.95,0.88,1.85,1.78,2.56,2.77
						c0.73,0.97,1.52,1.85,2.06,2.82c0.57,0.95,1.07,1.86,1.53,2.71c0.5,0.82,0.79,1.66,1.08,2.38c0.3,0.72,0.52,1.36,0.7,1.89
						c0.37,1.05,0.53,1.67,0.53,1.67s-0.48-0.45-1.24-1.25c-0.38-0.4-0.84-0.89-1.33-1.46c-0.5-0.56-1.03-1.22-1.69-1.87
						c-0.64-0.66-1.33-1.37-2.02-2.14c-0.67-0.79-1.53-1.46-2.31-2.26c-0.41-0.37-0.78-0.81-1.22-1.17
						c-0.44-0.35-0.88-0.72-1.32-1.09c-0.44-0.36-0.87-0.76-1.33-1.11l-1.41-0.99c-0.9-0.74-1.93-1.21-2.89-1.82
						c-0.98-0.53-1.99-0.99-2.97-1.4c-1-0.36-1.97-0.74-2.94-0.95c-0.95-0.3-1.89-0.4-2.76-0.58c-0.87-0.07-1.69-0.2-2.43-0.2
						c-0.74-0.04-1.38-0.01-1.93-0.01c-0.53,0.05-0.98,0.05-1.26,0.09C174.24,356.11,174.08,356.13,174.08,356.13z"/>
				</g>
			</g>
			<g>
				<g>
					<path class="st1" d="M204.21,370.39c0,0,0.5-0.6,1.55-1.44c0.53-0.42,1.19-0.92,1.99-1.41c0.81-0.49,1.73-1.05,2.81-1.5
						c1.05-0.54,2.28-0.9,3.57-1.33c1.32-0.27,2.72-0.72,4.21-0.79c0.74-0.07,1.5-0.16,2.27-0.17c0.77,0.02,1.55,0.04,2.34,0.08
						c0.79,0.01,1.58,0.13,2.36,0.28l2.36,0.43c1.51,0.51,3.07,0.93,4.49,1.58c0.7,0.34,1.39,0.69,2.07,1.04
						c0.67,0.37,1.38,0.65,1.96,1.11c1.22,0.83,2.35,1.69,3.42,2.48c1,0.89,1.89,1.79,2.71,2.6c0.41,0.41,0.8,0.8,1.17,1.17
						c0.32,0.42,0.63,0.81,0.91,1.19c0.58,0.74,1.04,1.41,1.43,1.95c0.77,1.09,1.17,1.74,1.17,1.74s-0.67-0.41-1.76-1.16
						c-0.54-0.38-1.21-0.83-1.93-1.38c-0.36-0.27-0.75-0.55-1.16-0.85c-0.43-0.27-0.88-0.55-1.35-0.84
						c-0.94-0.58-1.94-1.22-2.97-1.91c-1.11-0.57-2.28-1.16-3.44-1.81c-1.18-0.62-2.5-1.05-3.75-1.64c-1.29-0.5-2.65-0.84-3.98-1.28
						l-2.05-0.4c-0.68-0.14-1.36-0.31-2.04-0.33c-0.68-0.06-1.36-0.13-2.03-0.21c-0.67-0.05-1.34-0.01-2-0.03
						c-1.32-0.08-2.59,0.12-3.82,0.16c-1.2,0.23-2.38,0.3-3.43,0.57c-1.07,0.21-2.04,0.46-2.91,0.7c-0.86,0.26-1.62,0.48-2.24,0.7
						c-0.61,0.23-1.11,0.38-1.44,0.52C204.39,370.32,204.21,370.39,204.21,370.39z"/>
				</g>
			</g>
			<g>
				<g>
					<path class="st1" d="M243.93,375.87c0,0,0.15-0.42,0.58-1.07c0.21-0.32,0.49-0.7,0.85-1.11c0.37-0.39,0.78-0.85,1.31-1.26
						c0.51-0.45,1.13-0.82,1.8-1.24c0.7-0.33,1.44-0.75,2.27-0.97c0.41-0.13,0.84-0.25,1.27-0.36c0.44-0.07,0.89-0.14,1.35-0.19
						c0.91-0.16,1.85-0.03,2.78-0.03c0.91,0.16,1.84,0.29,2.7,0.57c0.84,0.31,1.69,0.59,2.43,1c0.73,0.42,1.42,0.85,2.06,1.26
						c0.59,0.49,1.12,0.96,1.6,1.41c0.23,0.23,0.46,0.45,0.67,0.65c0.18,0.24,0.36,0.46,0.52,0.67c0.33,0.41,0.59,0.8,0.8,1.12
						c0.43,0.63,0.63,1.02,0.63,1.02s-0.44-0.12-1.14-0.38c-0.35-0.13-0.77-0.28-1.23-0.49c-0.45-0.21-0.98-0.41-1.55-0.59
						c-0.57-0.2-1.16-0.43-1.77-0.69c-0.64-0.18-1.3-0.38-1.96-0.61c-0.67-0.22-1.37-0.31-2.06-0.52c-0.7-0.14-1.41-0.22-2.11-0.34
						c-0.7,0-1.41-0.14-2.11-0.09c-0.35,0.02-0.7,0.02-1.04,0.01c-0.34,0.04-0.68,0.07-1.02,0.11c-0.68,0.03-1.32,0.22-1.97,0.3
						c-0.62,0.16-1.24,0.27-1.79,0.45c-1.14,0.3-2.09,0.66-2.78,0.91C244.33,375.71,243.93,375.87,243.93,375.87z"/>
				</g>
			</g>
			<g>
				<g>
					<path class="st1" d="M267.68,376.33c0,0,0.52-0.46,1.5-1.16c0.98-0.7,2.42-1.65,4.24-2.6c1.81-0.98,4.01-1.98,6.45-2.84
						c2.44-0.86,5.14-1.55,7.92-1.95c2.78-0.39,5.65-0.46,8.33-0.03c1.34,0.21,2.62,0.52,3.8,0.96c1.18,0.42,2.24,0.98,3.16,1.58
						c0.92,0.59,1.69,1.24,2.28,1.89c0.64,0.6,1.03,1.27,1.39,1.76c0.34,0.51,0.52,0.97,0.67,1.25c0.14,0.29,0.21,0.45,0.21,0.45
						s-0.56-0.44-1.48-1.14c-0.5-0.31-1.05-0.73-1.76-1.07c-0.34-0.19-0.7-0.39-1.11-0.53c-0.41-0.15-0.79-0.37-1.25-0.49
						c-0.89-0.3-1.87-0.54-2.92-0.71c-0.52-0.09-1.06-0.18-1.62-0.21c-0.55-0.06-1.13-0.09-1.71-0.11
						c-1.17-0.05-2.39,0.01-3.63,0.06c-1.24,0.11-2.51,0.21-3.78,0.41c-5.09,0.69-10.19,2-14.1,2.91c-1.96,0.48-3.6,0.87-4.75,1.15
						C268.34,376.18,267.68,376.33,267.68,376.33z"/>
				</g>
			</g>
			<g>
				<g>
					<path class="st1" d="M138.13,344.48c0.58-0.66,1.24-1.26,1.95-1.79c0.7-0.56,1.46-1.03,2.25-1.47
						c0.39-0.24,0.81-0.41,1.22-0.61c0.41-0.21,0.85-0.34,1.28-0.5c0.43-0.17,0.88-0.29,1.33-0.4c0.45-0.11,0.91-0.25,1.38-0.29
						c0.47-0.05,0.94-0.14,1.42-0.15l1.44-0.01c0.48,0.01,0.96,0.1,1.45,0.15c0.49,0.04,0.96,0.15,1.43,0.3
						c0.47,0.14,0.95,0.25,1.41,0.42l1.34,0.6c0.9,0.4,1.67,0.98,2.49,1.5l-3.09,0.89c0.26-0.66,0.47-1.33,0.8-1.97
						c0.31-0.64,0.64-1.28,1.06-1.89c0.37-0.63,0.85-1.19,1.32-1.76c0.52-0.54,1.03-1.07,1.62-1.53c2.33-1.9,5.28-2.85,8.07-3
						c1.4-0.1,2.79,0.01,4.13,0.2c1.34,0.18,2.64,0.53,3.9,0.94c1.27,0.39,2.47,0.93,3.65,1.49c1.17,0.6,2.3,1.24,3.34,2.03
						c-2.53-0.58-5.01-1.04-7.47-1.29c-1.23-0.13-2.45-0.16-3.65-0.17c-1.2-0.01-2.37,0.13-3.5,0.32c-0.56,0.09-1.12,0.23-1.65,0.39
						c-0.54,0.14-1.05,0.35-1.55,0.55c-0.49,0.24-0.97,0.46-1.42,0.75c-0.45,0.28-0.88,0.58-1.28,0.94
						c-0.42,0.32-0.77,0.72-1.14,1.1c-0.32,0.43-0.69,0.81-0.97,1.29c-0.32,0.44-0.57,0.93-0.83,1.43
						c-0.28,0.48-0.46,1.03-0.71,1.54l-0.05,0.11c-0.48,1.02-1.7,1.45-2.72,0.97c-0.11-0.05-0.22-0.12-0.31-0.19l-0.92-0.66
						c-0.3-0.23-0.6-0.47-0.94-0.62l-0.98-0.55c-0.33-0.18-0.69-0.28-1.03-0.43c-0.34-0.16-0.7-0.28-1.06-0.36
						c-0.36-0.09-0.72-0.22-1.1-0.29l-1.14-0.17c-0.38-0.05-0.77-0.03-1.16-0.05c-0.39-0.04-0.79-0.01-1.18,0.01
						c-0.4,0.01-0.8,0.03-1.2,0.1c-0.4,0.06-0.81,0.09-1.21,0.19c-0.4,0.08-0.82,0.13-1.22,0.25c-0.4,0.11-0.82,0.19-1.21,0.34
						c-0.4,0.13-0.82,0.24-1.21,0.39C139.72,343.79,138.92,344.11,138.13,344.48z"/>
				</g>
			</g>
		</g>
		<g>
			<path class="st1" d="M133.33,217.44c0,0,0.38,0.23,1.06,0.72c0.69,0.48,1.66,1.23,2.89,2.21c1.19,1.02,2.66,2.23,4.22,3.76
				c1.62,1.47,3.28,3.29,5.13,5.25c0.88,1.02,1.79,2.09,2.73,3.19c0.47,0.55,0.96,1.11,1.42,1.7c0.45,0.6,0.91,1.2,1.38,1.82
				c0.92,1.24,1.9,2.49,2.85,3.8c0.92,1.34,1.82,2.73,2.75,4.13c0.46,0.7,0.93,1.41,1.4,2.13c0.43,0.74,0.87,1.48,1.31,2.23
				c0.88,1.49,1.77,3.01,2.64,4.55c0.84,1.55,1.61,3.17,2.42,4.76l1.21,2.4c0.4,0.8,0.82,1.6,1.16,2.43c0.7,1.65,1.4,3.31,2.09,4.96
				c0.68,1.65,1.43,3.27,1.98,4.95c0.6,1.66,1.18,3.32,1.73,4.96c0.28,0.82,0.56,1.63,0.84,2.44c0.14,0.4,0.28,0.81,0.41,1.21
				c0.12,0.41,0.23,0.81,0.34,1.22c0.92,3.23,1.75,6.37,2.55,9.34c0.72,2.99,1.22,5.86,1.74,8.49c0.25,1.32,0.5,2.58,0.73,3.77
				c0.23,1.2,0.32,2.36,0.47,3.44c0.28,2.16,0.49,4.05,0.67,5.6c0.35,3.1,0.51,4.87,0.51,4.87s-0.45-1.73-1.18-4.76
				c-0.36-1.52-0.8-3.35-1.27-5.46c-0.26-1.05-0.46-2.18-0.8-3.35c-0.33-1.17-0.67-2.4-1.02-3.68c-0.35-1.28-0.72-2.61-1.11-3.99
				c-0.4-1.37-0.71-2.82-1.18-4.27c-0.95-2.89-1.96-5.93-2.94-9.09c-1.04-3.14-2.39-6.29-3.54-9.56c-0.56-1.65-1.32-3.22-2-4.84
				c-0.7-1.61-1.4-3.23-2.1-4.84c-0.32-0.82-0.73-1.6-1.11-2.39l-1.16-2.37c-0.78-1.57-1.51-3.16-2.32-4.69
				c-0.85-1.51-1.67-3.02-2.48-4.51c-0.41-0.75-0.81-1.49-1.21-2.23c-0.44-0.71-0.87-1.42-1.3-2.13c-0.86-1.41-1.72-2.78-2.54-4.15
				c-0.86-1.34-1.75-2.61-2.59-3.88c-0.42-0.63-0.84-1.25-1.25-1.86c-0.42-0.6-0.87-1.17-1.28-1.75c-0.84-1.15-1.66-2.27-2.44-3.34
				c-1.68-2.04-3.13-4-4.58-5.6c-1.39-1.65-2.68-3.02-3.74-4.16c-1.09-1.1-1.93-1.99-2.55-2.55
				C133.67,217.74,133.33,217.44,133.33,217.44z"/>
		</g>
		<g>
			<path class="st1" d="M130.94,263.67c0,0,0.93,0.54,2.48,1.61c1.54,1.07,3.72,2.65,6.19,4.73c1.24,1.03,2.57,2.17,3.92,3.44
				c1.36,1.26,2.77,2.6,4.18,4.05c0.7,0.73,1.42,1.47,2.11,2.24c0.71,0.76,1.41,1.55,2.1,2.36c1.4,1.6,2.74,3.29,4.06,5.01
				c1.29,1.74,2.55,3.49,3.71,5.29c0.58,0.9,1.16,1.78,1.67,2.69c0.53,0.9,1.06,1.79,1.53,2.69c0.48,0.89,0.96,1.77,1.37,2.66
				c0.43,0.88,0.84,1.75,1.2,2.61c0.77,1.69,1.38,3.36,1.9,4.89c0.25,0.78,0.5,1.51,0.71,2.22c0.18,0.72,0.36,1.4,0.52,2.04
				c0.34,1.27,0.5,2.42,0.69,3.34c0.14,0.93,0.21,1.67,0.28,2.17c0.05,0.5,0.08,0.77,0.08,0.77s-0.39-1.01-1.01-2.76
				c-0.36-0.86-0.75-1.92-1.26-3.1c-0.26-0.59-0.54-1.22-0.83-1.88c-0.31-0.65-0.63-1.34-0.97-2.05c-0.32-0.72-0.73-1.44-1.12-2.19
				c-0.38-0.76-0.8-1.53-1.24-2.32c-0.42-0.8-0.9-1.59-1.39-2.4c-0.48-0.81-0.98-1.64-1.51-2.47c-1.03-1.67-2.17-3.36-3.34-5.06
				c-1.18-1.7-2.41-3.4-3.68-5.08c-2.54-3.35-5.21-6.62-7.78-9.62c-1.3-1.5-2.54-2.95-3.76-4.3c-1.23-1.35-2.39-2.62-3.46-3.8
				c-2.17-2.33-4-4.27-5.3-5.62C131.68,264.44,130.94,263.67,130.94,263.67z"/>
		</g>
		<g>
			<path class="st1" d="M86.08,182.52c-0.88-2.47-1.38-5.08-1.58-7.73c-0.18-2.64-0.01-5.35,0.71-7.97c0.37-1.3,0.83-2.6,1.48-3.81
				c0.65-1.21,1.42-2.37,2.35-3.4c0.92-1.03,1.94-1.99,3.08-2.78c1.11-0.84,2.33-1.5,3.56-2.11c0.62-0.3,1.26-0.54,1.9-0.82
				c0.71-0.25,1.25-0.44,1.91-0.66c1.39-0.38,2.75-0.71,4.2-0.78c1.43-0.09,2.93-0.04,4.4,0.37c1.46,0.39,2.88,1.1,4.08,2.06
				c1.2,0.96,2.18,2.14,2.96,3.4c0.78,1.26,1.36,2.59,1.81,3.95c0.45,1.35,0.76,2.73,0.98,4.12c0.21,1.41,0.35,2.73,0.36,4.25
				l-2.77-1.98c0.71-0.26,1.25-0.41,1.89-0.56c0.61-0.15,1.23-0.25,1.86-0.34c0.63-0.08,1.27-0.13,1.92-0.13
				c0.65-0.01,1.31,0.03,1.97,0.11c0.66,0.1,1.33,0.23,1.99,0.44c0.66,0.21,1.32,0.47,1.94,0.81c0.32,0.16,0.62,0.34,0.91,0.56
				c0.3,0.2,0.59,0.41,0.85,0.65c0.28,0.23,0.54,0.47,0.78,0.73c0.25,0.26,0.49,0.51,0.7,0.8c0.45,0.55,0.8,1.13,1.15,1.73
				c0.3,0.6,0.6,1.21,0.82,1.82c0.26,0.61,0.4,1.23,0.57,1.85c0.14,0.62,0.27,1.24,0.36,1.85c0.07,0.61,0.18,1.23,0.21,1.83
				c0.03,0.6,0.1,1.22,0.09,1.81c0,0.6,0.02,1.2,0,1.79l-0.08,1.77l-2.77-2.66c0.54-0.05,1.07-0.1,1.64-0.07
				c0.28,0,0.56,0.03,0.85,0.07c0.28,0.03,0.57,0.07,0.86,0.15c0.57,0.12,1.15,0.32,1.69,0.58c0.55,0.26,1.07,0.58,1.54,0.97
				c0.24,0.19,0.47,0.39,0.67,0.61c0.22,0.21,0.42,0.43,0.6,0.67c0.38,0.46,0.69,0.96,0.95,1.46c0.53,1.02,0.85,2.09,1.01,3.17
				c0.16,1.08,0.15,2.17-0.01,3.25c-0.16,1.08-0.49,2.15-1.01,3.17c-0.26,0.51-0.58,1-0.94,1.47c-0.19,0.23-0.39,0.45-0.59,0.68
				c-0.22,0.21-0.44,0.42-0.67,0.62c-0.24,0.19-0.49,0.37-0.74,0.55c-0.26,0.16-0.53,0.32-0.8,0.46c-0.28,0.13-0.56,0.25-0.84,0.37
				l-0.87,0.27l1.84-3.63c0.4,1.07,0.61,2.12,0.66,3.07c0.07,0.97,0.01,1.87-0.08,2.76l-0.19,1.3l-0.26,1.26l-0.32,1.23l-0.38,1.2
				c-0.27,0.79-0.56,1.57-0.89,2.33c-0.33,0.76-0.68,1.51-1.07,2.24c-0.38,0.74-0.8,1.45-1.24,2.16c-0.44,0.71-0.93,1.39-1.43,2.07
				l-0.79,1l-0.86,0.96c-0.6,0.63-1.24,1.23-1.93,1.8c-0.7,0.56-1.46,1.09-2.29,1.55c-0.41,0.23-0.87,0.42-1.3,0.63
				c-0.46,0.18-0.94,0.34-1.42,0.48c-0.51,0.1-1,0.23-1.52,0.28c-0.53,0.02-1.05,0.11-1.58,0.05c-0.53-0.04-1.06-0.06-1.57-0.2
				c-0.52-0.11-1.03-0.23-1.5-0.44c-0.48-0.18-0.96-0.38-1.38-0.64c-0.43-0.24-0.87-0.48-1.24-0.78c-0.8-0.55-1.45-1.19-2.12-1.82
				l4.77-2.32c0.23,2.08,0.41,4.18,0.28,6.31c-0.01,1.06-0.18,2.12-0.29,3.18c-0.2,1.06-0.36,2.11-0.67,3.15
				c-0.55,2.08-1.34,4.12-2.41,6.01c-1.06,1.9-2.35,3.67-3.85,5.24c-2.98,3.17-6.82,5.45-10.92,6.75c-4.11,1.29-8.58,1.6-12.88,0.52
				c-2.14-0.54-4.23-1.46-6.08-2.77l-0.35-0.25l-0.17-0.12l-0.09-0.06l-0.16-0.13l-0.55-0.48l-0.28-0.24l-0.14-0.12l-0.16-0.16
				l-0.64-0.66c-0.83-0.89-1.44-1.8-2.04-2.78c-1.13-1.97-1.79-4.12-2.13-6.25c-0.34-2.13-0.37-4.25-0.21-6.32
				c0.35-4.14,1.39-8.1,2.88-11.84c0.75-1.87,1.6-3.7,2.58-5.47c1-1.77,2.06-3.49,3.52-5.11l1.83,2.42l-1.31,0.52
				c-0.45,0.15-0.92,0.28-1.37,0.42c-0.48,0.1-0.95,0.2-1.44,0.27c-0.5,0.03-0.98,0.12-1.5,0.07c-1.01,0.01-2.06-0.26-3.03-0.66
				c-0.98-0.43-1.83-1.14-2.49-1.96c-0.68-0.82-1.06-1.78-1.34-2.73c-0.26-0.96-0.34-1.92-0.33-2.87c0-0.47,0.07-0.94,0.1-1.4
				c0.08-0.46,0.15-0.92,0.25-1.36c0.21-0.89,0.49-1.76,0.83-2.6c0.34-0.84,0.76-1.63,1.19-2.41l0.7-1.14l0.77-1.09
				c0.25-0.37,0.55-0.69,0.82-1.04c0.27-0.35,0.56-0.68,0.86-1c0.58-0.66,1.21-1.27,1.84-1.88c0.65-0.58,1.29-1.17,1.99-1.7
				l1.03-0.79c0.35-0.26,0.71-0.49,1.07-0.74c0.7-0.51,1.46-0.94,2.19-1.39C84.55,183.31,85.32,182.93,86.08,182.52z M86.08,182.52
				c-0.71,0.49-1.43,0.96-2.12,1.47c-0.68,0.52-1.39,1.01-2.03,1.58c-0.33,0.28-0.66,0.54-0.98,0.83l-0.94,0.87
				c-0.63,0.58-1.2,1.21-1.79,1.82c-0.56,0.64-1.12,1.27-1.62,1.95c-0.26,0.33-0.51,0.67-0.74,1.02c-0.23,0.35-0.49,0.68-0.69,1.05
				l-0.64,1.08l-0.57,1.11c-0.35,0.75-0.66,1.52-0.92,2.29c-0.26,0.78-0.45,1.57-0.59,2.36c-0.07,0.4-0.09,0.79-0.14,1.19
				c0,0.39-0.03,0.79-0.01,1.17c0.04,0.77,0.16,1.53,0.4,2.22c0.26,0.68,0.56,1.33,1.04,1.81c0.46,0.48,0.99,0.88,1.61,1.1
				c0.63,0.2,1.29,0.34,2,0.29c0.35,0.02,0.71-0.08,1.07-0.11c0.36-0.07,0.72-0.17,1.08-0.26l1.08-0.39l1.06-0.49
				c0.78-0.36,1.7-0.02,2.06,0.76c0.25,0.55,0.16,1.18-0.2,1.63l-0.03,0.04c-1.08,1.33-2.01,2.98-2.83,4.64
				c-0.81,1.68-1.52,3.41-2.12,5.18c-1.18,3.54-2.04,7.2-2.18,10.82c-0.16,3.6,0.42,7.19,2.14,9.95c0.24,0.33,0.44,0.68,0.7,0.98
				c0.26,0.29,0.51,0.65,0.77,0.87l0.38,0.38l0.09,0.1l0.14,0.12l0.28,0.23l0.56,0.46l0.04,0.03l0.02,0.01
				c0.03,0.02-0.16-0.13-0.07-0.06l0.06,0.04l0.13,0.08l0.25,0.17c1.34,0.91,2.88,1.55,4.51,1.92c3.27,0.75,6.84,0.44,10.1-0.67
				c3.27-1.12,6.26-3.03,8.6-5.53c1.17-1.25,2.17-2.65,2.99-4.15c0.84-1.49,1.44-3.12,1.87-4.79c0.24-0.83,0.36-1.69,0.52-2.55
				c0.08-0.87,0.22-1.73,0.22-2.62c0.1-1.76-0.07-3.54-0.27-5.32c-0.17-1.54,0.94-2.94,2.48-3.11c0.83-0.09,1.62,0.18,2.19,0.7
				l0.1,0.09c0.44,0.4,0.88,0.83,1.34,1.13c0.22,0.19,0.46,0.29,0.68,0.42c0.22,0.15,0.46,0.23,0.68,0.31
				c0.22,0.11,0.45,0.15,0.68,0.2c0.22,0.08,0.45,0.06,0.68,0.1c0.22,0.05,0.46-0.02,0.69-0.01c0.23-0.02,0.47-0.09,0.71-0.12
				l0.73-0.24c0.25-0.13,0.5-0.22,0.74-0.35c0.5-0.28,0.99-0.61,1.47-0.99c0.48-0.39,0.95-0.82,1.4-1.28l0.66-0.73l0.63-0.78
				c0.4-0.54,0.8-1.08,1.16-1.66c0.36-0.57,0.72-1.16,1.04-1.77c0.33-0.6,0.62-1.23,0.9-1.85c0.28-0.63,0.52-1.27,0.75-1.91
				l0.31-0.97l0.26-0.97l0.21-0.97l0.15-0.95c0.06-0.62,0.11-1.24,0.07-1.78c-0.01-0.57-0.14-1.01-0.25-1.37l0-0.01
				c-0.45-1.51,0.37-3.1,1.84-3.63c0.11-0.04,0.21-0.07,0.32-0.1c0.1-0.04,0.2-0.09,0.3-0.13c0.09-0.05,0.18-0.11,0.28-0.15
				c0.09-0.06,0.17-0.13,0.27-0.18c0.08-0.08,0.16-0.15,0.25-0.22l0.23-0.26c0.15-0.19,0.29-0.39,0.41-0.61
				c0.5-0.9,0.72-2.12,0.58-3.24c-0.07-0.56-0.22-1.1-0.45-1.56c-0.11-0.23-0.24-0.45-0.38-0.63c-0.07-0.1-0.14-0.19-0.22-0.27
				c-0.07-0.09-0.16-0.16-0.24-0.23c-0.17-0.15-0.35-0.27-0.55-0.37c-0.2-0.1-0.41-0.19-0.65-0.24c-0.11-0.04-0.24-0.06-0.36-0.07
				c-0.12-0.02-0.25-0.04-0.39-0.04c-0.26-0.03-0.56,0-0.85,0.02l-0.18,0.01c-1.38,0.05-2.54-1.03-2.59-2.4c0-0.09,0-0.18,0-0.26
				l0.11-1.57c0.04-0.52,0.02-1.03,0.04-1.55c0.02-0.52-0.03-1.02-0.04-1.53c-0.01-0.51-0.09-0.99-0.13-1.49
				c-0.07-0.49-0.16-0.97-0.25-1.44c-0.13-0.45-0.22-0.93-0.38-1.35c-0.13-0.45-0.32-0.84-0.5-1.25c-0.21-0.38-0.41-0.76-0.66-1.09
				c-0.11-0.18-0.25-0.33-0.39-0.48c-0.13-0.16-0.27-0.3-0.42-0.43c-0.14-0.14-0.3-0.27-0.46-0.38c-0.15-0.13-0.32-0.24-0.5-0.33
				c-0.34-0.21-0.72-0.38-1.12-0.52c-0.4-0.15-0.82-0.24-1.26-0.33c-0.44-0.07-0.9-0.12-1.36-0.13c-0.47-0.01-0.94,0-1.42,0.05
				c-0.48,0.05-0.96,0.11-1.44,0.21c-0.46,0.09-1,0.22-1.34,0.34l-0.1,0.03c-1.07,0.35-2.22-0.24-2.57-1.31
				c-0.07-0.23-0.11-0.47-0.1-0.7c0.04-1.09-0.03-2.39-0.17-3.58c-0.14-1.21-0.38-2.4-0.69-3.55c-0.63-2.29-1.69-4.42-3.31-5.86
				c-0.81-0.72-1.75-1.26-2.8-1.6c-1.04-0.36-2.2-0.46-3.37-0.45c-1.18-0.01-2.39,0.23-3.54,0.46c-0.59,0.15-1.31,0.35-1.84,0.5
				c-0.58,0.21-1.18,0.39-1.76,0.62c-1.14,0.48-2.27,1-3.3,1.67c-1.06,0.64-2.01,1.43-2.89,2.29c-0.89,0.86-1.63,1.86-2.31,2.9
				c-0.67,1.05-1.2,2.19-1.63,3.38c-0.87,2.38-1.23,4.95-1.29,7.53c-0.03,1.29,0.03,2.59,0.17,3.89
				C85.57,179.95,85.76,181.25,86.08,182.52z"/>
		</g>
		<g>
			<path class="st4" d="M279.55,359.89c0,0,0.16-0.43,0.52-1.23c0.35-0.8,0.91-1.94,1.67-3.38c0.4-0.71,0.84-1.5,1.32-2.35
				c0.48-0.86,1.07-1.73,1.67-2.7c0.3-0.48,0.62-0.98,0.94-1.49c0.34-0.49,0.7-1,1.06-1.53c0.73-1.04,1.49-2.14,2.33-3.26
				c1.73-2.19,3.54-4.63,5.71-6.99c0.53-0.6,1.07-1.21,1.61-1.83c0.54-0.62,1.09-1.25,1.69-1.84c1.17-1.21,2.39-2.42,3.61-3.67
				c1.2-1.27,2.55-2.43,3.87-3.65c1.33-1.21,2.67-2.45,4.06-3.65c1.43-1.15,2.87-2.31,4.32-3.47c1.46-1.15,2.87-2.37,4.41-3.43
				c1.52-1.08,3.04-2.15,4.56-3.22c0.76-0.54,1.51-1.07,2.27-1.6c0.76-0.52,1.55-0.99,2.32-1.49c1.55-0.98,3.09-1.94,4.62-2.88
				c1.53-0.94,3.02-1.9,4.57-2.7c3.05-1.68,6.04-3.25,8.85-4.75c2.88-1.39,5.64-2.62,8.17-3.77c1.27-0.57,2.48-1.12,3.64-1.64
				c1.17-0.49,2.31-0.89,3.36-1.3c2.11-0.81,3.96-1.49,5.48-2.05c3.04-1.12,4.79-1.72,4.79-1.72s-1.64,0.87-4.53,2.33
				c-1.45,0.72-3.2,1.6-5.21,2.61c-1,0.51-2.09,1-3.2,1.6c-1.11,0.61-2.27,1.24-3.48,1.91c-2.43,1.32-5.05,2.74-7.83,4.25
				c-2.71,1.63-5.56,3.36-8.53,5.09c-1.5,0.84-2.94,1.84-4.42,2.81c-1.47,0.98-2.97,1.96-4.49,2.93c-0.75,0.5-1.53,0.97-2.27,1.49
				c-0.74,0.53-1.47,1.07-2.21,1.6c-1.48,1.07-2.96,2.14-4.45,3.21c-1.52,1.02-2.92,2.2-4.36,3.32c-1.43,1.13-2.86,2.25-4.28,3.37
				c-1.37,1.17-2.72,2.34-4.06,3.49c-1.34,1.16-2.7,2.25-3.92,3.46c-1.25,1.18-2.46,2.35-3.68,3.46c-0.62,0.55-1.19,1.13-1.75,1.71
				c-0.56,0.58-1.12,1.15-1.67,1.71c-2.24,2.22-4.19,4.47-6.05,6.5c-0.91,1.03-1.72,2.07-2.54,3.02c-0.41,0.48-0.8,0.95-1.18,1.4
				c-0.36,0.47-0.72,0.93-1.06,1.37c-0.68,0.89-1.34,1.71-1.91,2.49c-0.57,0.79-1.09,1.51-1.56,2.17c-0.9,1.33-1.63,2.38-2.07,3.12
				C279.78,359.49,279.55,359.89,279.55,359.89z"/>
		</g>
		<g>
			<path class="st4" d="M315.5,340.72c0,0,0.85-0.9,2.43-2.38c1.58-1.48,3.88-3.55,6.76-5.89c1.44-1.17,3.01-2.43,4.72-3.69
				c1.7-1.28,3.51-2.61,5.43-3.91c1.93-1.3,3.9-2.66,5.99-3.93c2.08-1.28,4.21-2.55,6.37-3.78c2.17-1.2,4.38-2.34,6.57-3.43
				c2.19-1.1,4.41-2.04,6.55-2.96c2.15-0.91,4.27-1.68,6.3-2.37c1.02-0.33,2-0.67,2.97-0.95c0.97-0.27,1.91-0.53,2.81-0.77
				c0.91-0.22,1.78-0.42,2.61-0.62c0.83-0.19,1.63-0.31,2.37-0.46c1.48-0.31,2.81-0.41,3.88-0.57c1.08-0.13,1.94-0.15,2.51-0.19
				c0.58-0.03,0.89-0.05,0.89-0.05s-1.19,0.33-3.27,0.9c-1.03,0.33-2.28,0.67-3.69,1.16c-1.42,0.45-2.99,1.05-4.71,1.67
				c-1.7,0.67-3.54,1.41-5.46,2.23c-1.92,0.83-3.92,1.77-5.99,2.73c-1.02,0.5-2.07,1.01-3.12,1.53c-1.04,0.54-2.1,1.09-3.17,1.62
				c-2.13,1.11-4.28,2.26-6.39,3.47c-2.14,1.17-4.26,2.38-6.32,3.62c-2.06,1.24-4.11,2.43-6.06,3.63c-1.95,1.21-3.83,2.38-5.62,3.49
				c-1.78,1.13-3.46,2.2-5.01,3.19C319.63,338.03,315.5,340.72,315.5,340.72z"/>
		</g>
		<g>
			<path class="st1" d="M375.77,259.22c-1-0.56-1.96-1.19-2.89-1.88c-0.92-0.69-1.81-1.43-2.65-2.25c-0.83-0.82-1.6-1.71-2.26-2.71
				c-0.65-1-1.2-2.1-1.49-3.33c-0.14-0.61-0.21-1.25-0.2-1.89c0.01-0.64,0.11-1.29,0.29-1.91l0.32-0.91l0.43-0.86
				c0.33-0.54,0.67-1.09,1.09-1.55c0.39-0.5,0.84-0.92,1.29-1.34c0.44-0.43,0.94-0.78,1.41-1.17l1.49-1.02l1.55-0.91l-0.66,0.75
				l0.89-2.77c0.28-0.93,0.67-1.83,1.01-2.75c0.33-0.92,0.73-1.82,1.14-2.72c0.21-0.45,0.39-0.91,0.61-1.35l0.69-1.32
				c0.43-0.89,0.99-1.74,1.52-2.6c0.25-0.44,0.58-0.84,0.88-1.26c0.32-0.41,0.59-0.84,0.95-1.23l1.06-1.17
				c0.37-0.38,0.81-0.72,1.21-1.08c0.39-0.37,0.89-0.65,1.35-0.97c0.45-0.33,0.98-0.57,1.5-0.81c1.04-0.5,2.21-0.8,3.39-0.93
				c0.59-0.08,1.18-0.03,1.78-0.04c0.58,0.07,1.17,0.13,1.73,0.26c1.12,0.27,2.21,0.65,3.18,1.16l0.74,0.38l0.69,0.42
				c0.47,0.27,0.9,0.59,1.33,0.9c0.86,0.63,1.65,1.31,2.42,2.01c0.75,0.72,1.47,1.45,2.13,2.23c0.68,0.77,1.3,1.57,1.91,2.38
				c0.61,0.83,1.16,1.62,1.75,2.58l-3.21-1c0.41-0.19,0.66-0.29,0.98-0.41c0.31-0.12,0.62-0.22,0.93-0.31
				c0.63-0.19,1.27-0.34,1.94-0.44c1.33-0.2,2.82-0.22,4.35,0.24c0.76,0.22,1.52,0.6,2.2,1.07c0.67,0.49,1.27,1.07,1.74,1.71
				c0.47,0.64,0.84,1.31,1.11,1.98c0.29,0.67,0.47,1.33,0.64,1.99c0.12,0.64,0.26,1.3,0.31,1.92c0.08,0.64,0.11,1.25,0.12,1.87
				c0.03,0.62-0.02,1.21-0.03,1.81c-0.01,0.6-0.09,1.18-0.14,1.77c-0.04,0.59-0.15,1.15-0.22,1.73c-0.07,0.58-0.18,1.14-0.28,1.71
				c-0.19,1.14-0.45,2.24-0.69,3.35l-1.01-2.82l2.35,1.84c0.76,0.66,1.53,1.3,2.27,1.99c0.72,0.72,1.49,1.37,2.17,2.15l1.04,1.13
				l0.99,1.21l0.49,0.61l0.46,0.65c0.3,0.44,0.62,0.86,0.89,1.32l0.82,1.39c0.26,0.48,0.48,0.98,0.71,1.48
				c0.43,1.01,0.82,2.06,1.07,3.18c0.16,0.54,0.23,1.12,0.32,1.68c0.1,0.56,0.11,1.15,0.14,1.73c0.04,1.16-0.09,2.33-0.31,3.48
				c-0.14,0.57-0.28,1.13-0.46,1.68c-0.21,0.54-0.38,1.1-0.64,1.61c-0.25,0.52-0.49,1.04-0.79,1.51c-0.28,0.5-0.59,0.96-0.92,1.41
				c-0.65,0.91-1.38,1.74-2.15,2.52c-0.78,0.75-1.6,1.48-2.47,2.11c-0.86,0.65-1.77,1.22-2.7,1.75c-1.89,1.03-3.87,1.88-6.22,2.27
				l2.13-1.96l-0.77,2.67l-0.88,2.65c-0.34,0.88-0.65,1.76-1.02,2.62c-0.38,0.87-0.74,1.74-1.18,2.59c-0.41,0.86-0.89,1.7-1.38,2.54
				c-0.24,0.42-0.53,0.82-0.8,1.23c-0.26,0.41-0.56,0.81-0.87,1.21c-0.3,0.4-0.61,0.79-0.97,1.17c-0.35,0.38-0.68,0.76-1.09,1.11
				c-0.39,0.36-0.77,0.71-1.23,1.03c-0.22,0.16-0.44,0.32-0.67,0.48l-0.74,0.42c-0.47,0.3-1.05,0.49-1.59,0.71
				c-0.59,0.15-1.15,0.35-1.79,0.38c-1.23,0.16-2.55-0.02-3.71-0.49c-1.16-0.46-2.18-1.18-2.96-2.01c-0.43-0.4-0.73-0.86-1.08-1.31
				c-0.28-0.47-0.6-0.92-0.82-1.41c-0.5-0.95-0.81-1.95-1.08-2.95c-0.13-0.5-0.2-1-0.3-1.5c-0.06-0.5-0.12-1-0.16-1.5
				c-0.01-0.5-0.04-1-0.04-1.49c0.02-0.49,0.03-0.99,0.07-1.48c0.06-0.49,0.11-0.98,0.19-1.46l0.28-1.43l1.95,2.19l-2.8,0.07
				c-0.94-0.01-1.88-0.06-2.81-0.09c-0.94-0.08-1.88-0.19-2.82-0.31l-1.41-0.27l-0.7-0.14l-0.7-0.2c-0.46-0.14-0.93-0.26-1.39-0.42
				l-1.36-0.56c-0.46-0.16-0.88-0.46-1.31-0.68l-0.64-0.37l-0.6-0.44c-0.4-0.3-0.81-0.58-1.16-0.95c-0.36-0.36-0.74-0.68-1.03-1.09
				c-0.64-0.77-1.18-1.63-1.59-2.52c-0.42-0.9-0.72-1.84-0.91-2.78c-0.09-0.47-0.2-0.94-0.23-1.42c-0.05-0.47-0.1-0.95-0.09-1.42
				c-0.02-0.94,0.03-1.88,0.15-2.8c0.1-0.92,0.27-1.83,0.47-2.73c0.2-0.9,0.44-1.78,0.72-2.65c0.26-0.87,0.59-1.72,0.93-2.57
				C374.08,262.42,374.86,260.78,375.77,259.22z M375.77,259.22c-0.69,1.66-1.28,3.36-1.75,5.09c-0.24,0.86-0.45,1.73-0.63,2.6
				c-0.19,0.87-0.34,1.74-0.44,2.62c-0.11,0.87-0.18,1.75-0.19,2.62c-0.02,0.87,0.01,1.74,0.12,2.59c0.1,0.85,0.25,1.69,0.49,2.48
				c0.23,0.8,0.55,1.57,0.95,2.27c0.4,0.71,0.88,1.35,1.44,1.92c0.25,0.31,0.59,0.54,0.89,0.8c0.29,0.27,0.64,0.47,0.98,0.68
				l0.51,0.32l0.55,0.25c0.38,0.16,0.71,0.37,1.12,0.48l1.17,0.39c0.4,0.1,0.81,0.18,1.22,0.28l0.61,0.14l0.63,0.08l1.25,0.16
				c0.85,0.06,1.7,0.09,2.55,0.12c0.86-0.03,1.72-0.03,2.58-0.08l2.59-0.23c1-0.09,1.89,0.65,1.98,1.66
				c0.01,0.13,0.01,0.26-0.01,0.39l-0.02,0.15l-0.16,1.21c-0.04,0.4-0.05,0.81-0.08,1.21c-0.02,0.4,0,0.8,0,1.2
				c0.01,0.4,0.06,0.79,0.08,1.19c0.05,0.39,0.12,0.77,0.17,1.16c0.1,0.37,0.17,0.76,0.28,1.12c0.23,0.72,0.49,1.43,0.85,2.04
				c0.16,0.33,0.38,0.59,0.57,0.88c0.23,0.24,0.42,0.54,0.66,0.73c0.46,0.45,0.97,0.75,1.48,0.92c0.51,0.18,1.02,0.23,1.56,0.12
				c0.27-0.01,0.54-0.15,0.82-0.22c0.28-0.15,0.56-0.23,0.83-0.43l0.42-0.26l0.41-0.32c0.28-0.2,0.54-0.46,0.8-0.71
				c0.27-0.24,0.51-0.54,0.76-0.83c0.26-0.27,0.49-0.6,0.72-0.92c0.24-0.31,0.47-0.63,0.67-0.98c0.21-0.35,0.44-0.67,0.63-1.03
				c0.39-0.72,0.78-1.44,1.12-2.21c0.37-0.74,0.66-1.54,0.98-2.32c0.31-0.78,0.57-1.6,0.86-2.4l0.74-2.46l0.65-2.5
				c0.27-1.03,1.1-1.76,2.08-1.95l0.06-0.01c0.7-0.13,1.46-0.38,2.21-0.68c0.76-0.29,1.5-0.67,2.23-1.07
				c0.72-0.43,1.43-0.87,2.08-1.38c0.67-0.49,1.28-1.05,1.87-1.62c0.56-0.59,1.1-1.2,1.55-1.85c0.23-0.32,0.45-0.65,0.63-0.99
				c0.21-0.33,0.36-0.68,0.52-1.02c0.18-0.34,0.27-0.71,0.41-1.05c0.11-0.36,0.19-0.72,0.28-1.08c0.12-0.73,0.21-1.46,0.17-2.21
				c-0.03-0.37-0.02-0.74-0.1-1.12c-0.06-0.37-0.1-0.75-0.22-1.12c-0.17-0.75-0.46-1.49-0.78-2.23c-0.18-0.36-0.34-0.74-0.53-1.1
				l-0.62-1.08c-0.21-0.36-0.47-0.7-0.71-1.06l-0.36-0.53l-0.41-0.51l-0.81-1.02l-0.89-0.98c-0.57-0.67-1.26-1.26-1.88-1.9
				c-0.65-0.61-1.35-1.2-2.02-1.8l-2.14-1.7l-0.02-0.02c-0.87-0.69-1.22-1.79-0.99-2.81c0.22-1.02,0.48-2.04,0.66-3.06
				c0.1-0.51,0.2-1.02,0.26-1.52c0.07-0.5,0.17-1.01,0.2-1.51c0.04-0.5,0.12-1,0.13-1.49c0.01-0.49,0.07-0.99,0.04-1.46
				c0-0.48,0-0.95-0.05-1.4c-0.02-0.47-0.11-0.88-0.17-1.31c-0.1-0.4-0.19-0.8-0.33-1.13c-0.13-0.34-0.28-0.64-0.45-0.89
				c-0.17-0.25-0.35-0.43-0.56-0.6c-0.21-0.15-0.43-0.29-0.72-0.37c-0.55-0.2-1.31-0.25-2.13-0.15c-0.41,0.04-0.83,0.13-1.26,0.25
				c-0.21,0.05-0.42,0.12-0.63,0.19c-0.19,0.06-0.45,0.16-0.54,0.2l-0.12,0.05c-1.16,0.48-2.48,0.01-3.08-1.05
				c-0.39-0.68-0.9-1.48-1.41-2.2c-0.52-0.73-1.05-1.45-1.62-2.13c-0.56-0.69-1.16-1.34-1.75-1.98c-0.61-0.62-1.24-1.21-1.9-1.74
				c-0.33-0.26-0.66-0.53-1.01-0.75l-0.51-0.35l-0.53-0.3c-0.7-0.41-1.42-0.69-2.15-0.91c-0.36-0.1-0.72-0.14-1.09-0.22
				c-0.36,0.01-0.72-0.07-1.08-0.02c-0.72,0.05-1.43,0.18-2.13,0.49c-0.35,0.15-0.71,0.27-1.04,0.5c-0.33,0.22-0.69,0.37-1,0.66
				c-0.32,0.26-0.65,0.49-0.97,0.78l-0.92,0.89c-0.31,0.29-0.57,0.66-0.86,0.99c-0.28,0.34-0.58,0.66-0.83,1.04
				c-0.51,0.74-1.06,1.45-1.51,2.25l-0.71,1.17c-0.23,0.39-0.43,0.81-0.65,1.22c-0.43,0.82-0.87,1.64-1.23,2.5
				c-0.37,0.86-0.8,1.69-1.13,2.57l-1.06,2.61l-0.04,0.09c-0.12,0.3-0.35,0.53-0.62,0.66l-1.47,0.72l-1.41,0.8
				c-0.43,0.31-0.9,0.58-1.31,0.92c-0.41,0.33-0.82,0.66-1.17,1.04c-0.39,0.35-0.68,0.77-0.98,1.18l-0.4,0.64l-0.3,0.68
				c-0.17,0.47-0.3,0.94-0.36,1.44c-0.06,0.5-0.05,1.01,0.02,1.52c0.13,1.03,0.51,2.05,1.02,3.01c0.51,0.97,1.16,1.88,1.87,2.75
				c0.71,0.87,1.49,1.69,2.32,2.47C373.98,257.8,374.85,258.54,375.77,259.22z"/>
		</g>
	</g>
</g>
</svg>
