<?xml version="1.0" encoding="utf-8"?>
<!-- Generator: Adobe Illustrator 28.1.0, SVG Export Plug-In . SVG Version: 6.00 Build 0)  -->
<svg version="1.1" id="Layer_1" xmlns="http://www.w3.org/2000/svg" xmlns:xlink="http://www.w3.org/1999/xlink" x="0px" y="0px"
	 viewBox="0 0 2200 2200" style="enable-background:new 0 0 2200 2200;" xml:space="preserve">
<style type="text/css">
	.st0{fill:#FFFFFF00;}
	.st1{fill:#843C0D;}
	.st2{fill:#222329;}
	.st3{fill:#30323A;}
	.st4{fill:#BA6B27;}
	.st5{fill:#7D481A;}
	.st6{opacity:0.8835;fill:#843C0D;}
	.st7{opacity:0.8212;fill:#843C0D;}
	.st8{opacity:0.9609;fill:#843C0D;}
	.st9{opacity:0.9367;fill:#843C0D;}
	.st10{opacity:0.8941;fill:#843C0D;}
	.st11{opacity:0.5062;fill:#843C0D;}
	.st12{opacity:0.9314;fill:#843C0D;}
	.st13{opacity:0.5613;fill:#843C0D;}
	.st14{opacity:0.8273;fill:#843C0D;}
	.st15{opacity:0.675;fill:#843C0D;}
	.st16{opacity:0.9605;fill:#843C0D;}
	.st17{opacity:0.7896;fill:#843C0D;}
	.st18{opacity:0.9249;fill:#843C0D;}
	.st19{opacity:0.7601;fill:#843C0D;}
	.st20{opacity:0.5928;fill:#843C0D;}
	.st21{opacity:0.8305;fill:#843C0D;}
	.st22{opacity:0.7767;fill:#843C0D;}
	.st23{opacity:0.5091;fill:#843C0D;}
	.st24{opacity:0.8561;fill:#843C0D;}
	.st25{opacity:0.9596;fill:#843C0D;}
	.st26{opacity:0.9824;fill:#843C0D;}
	.st27{opacity:0.5713;fill:#843C0D;}
	.st28{opacity:0.7689;fill:#843C0D;}
	.st29{opacity:0.747;fill:#843C0D;}
	.st30{opacity:0.9481;fill:#843C0D;}
	.st31{opacity:0.8111;fill:#843C0D;}
	.st32{opacity:0.757;fill:#843C0D;}
	.st33{opacity:0.5216;fill:#843C0D;}
	.st34{opacity:0.8096;fill:#843C0D;}
	.st35{opacity:0.6755;fill:#843C0D;}
	.st36{opacity:0.9217;fill:#843C0D;}
	.st37{opacity:0.5475;fill:#843C0D;}
	.st38{opacity:0.8472;fill:#843C0D;}
	.st39{opacity:0.8513;fill:#843C0D;}
	.st40{opacity:0.6718;fill:#843C0D;}
	.st41{opacity:0.8476;fill:#843C0D;}
	.st42{opacity:0.7386;fill:#843C0D;}
	.st43{opacity:0.7683;fill:#843C0D;}
</style>
<rect class="st0" width="2200" height="2200"/>
<g>
	<path class="st1" d="M1770.96,1822.62c-58.37-24.89-166.81-110.36-266.83-199.36c195.26,16.32,395.53,48.62,425.55,105.66
		C1957.29,1781.36,1823.9,1809.84,1770.96,1822.62z"/>
	<path class="st1" d="M914.24,1695.44c-43.03-8.59-114.32-27.72-101.37-39.21c8.71-7.72,34.6-15,71.96-21.4
		C900.17,1673.37,914.24,1695.44,914.24,1695.44z"/>
	<g>
		<path class="st2" d="M911.02,1554.34c-8.3-3.8-16.42-6.47-22.68-7.57c-2.17-0.39-5.19-2.12-8.83-4.98
			c-26.01-20.11-83.05-94.94-76.76-114.5c3.08-9.62,52.38-21.92,106.82-46.05v-77.41H778.34c3.74,38.15-37.72,87.21-47.82,92.27
			c-12.47,6.23-30.3,23.18-21.4,44.57c7.78,18.67,35.22,34.62,77.63,105.86c6.21,10.42,12.73,22.05,19.56,35.01
			c13.96,26.5,94.02,60.26,132.83,29.41C965.62,1589.91,937.52,1566.39,911.02,1554.34z"/>
		<path class="st3" d="M863.57,980.2c0,0-119.54,8.65-160.66,74.63c-114.74-94.68-251.77-80.05-324.13-163.52
			c-3.48-3.99-6.8-8.01-9.97-12.02c-116.84-147.26-41.18-296.32-41.18-296.32c-50.22,212.26,93.47,294.64,145.8,316.96
			c66.62,28.42,161.25,37.67,253.63,51.65C774.53,958.8,821.38,967.25,863.57,980.2z"/>
		<path class="st2" d="M863.57,980.2c0,0-119.54,8.65-160.66,74.63c-114.74-94.68-251.77-80.05-324.13-163.52
			c-3.48-3.99-6.8-8.01-9.97-12.02c78.9,54.12,149.28,69.43,236.27,86.62c47.3,9.35,88.59,0.62,121.98-14.32
			C774.53,958.8,821.38,967.25,863.57,980.2z"/>
		<path class="st3" d="M1770.96,1822.62c-70.22,17.55-144.79,35.11-271.63-20.14c-18.28-7.95-37.67-17.41-58.25-28.62
			c-163.5-88.92-308.85-69.8-413.05-68.84c-104.23,0.95-113.78-9.58-113.78-9.58s-14.07-22.08-29.41-60.61
			c-9.24-23.17-18.96-52.33-26.32-86.17c-5.73-26.23-10.03-55.33-11.66-86.65c-79.35,61.31-195.4,83.17-200.35,98.61
			c-6.74,20.98,54.43,101.23,82.32,122.8c3.9,3.06,7.13,4.92,9.47,5.34c6.71,1.18,15.42,4.04,24.32,8.12
			c28.42,12.92,58.56,38.14,30.17,60.72c-41.63,33.09-127.49-3.12-142.46-31.54c-7.33-13.9-14.32-26.37-20.98-37.55
			c-45.47-76.4-74.91-93.5-83.25-113.53c-9.55-22.95,9.58-41.12,22.95-47.8c13.4-6.71,78.28-85.61,39.21-125.27
			c-63.11-64.07-74.82-201.19-60.25-238.07c18.17-45.92,150.13-174.03,258.18-186.47c108.05-12.41,294.5,98.5,337.53,147.26
			c17.39,19.72,36.2,56.15,55.7,97.72c28.76,61.31,59.04,133.81,88.67,180.52c18.76,29.6,75.55,89.6,145.24,155.46
			c22.53,21.32,46.43,43.23,70.81,64.94C1604.15,1712.27,1712.59,1797.74,1770.96,1822.62z"/>
		<path class="st2" d="M846.86,1462.01c-79.35,61.31-195.4,83.17-200.35,98.61c-6.74,20.98,54.43,101.23,82.32,122.8
			c-29.24-17.13-116.59-73.53-123.75-139.54c0,0,309.16-120.13,212.28-305.48c-83.53-159.82,53.06-44.46,102.6,82.21
			C942.77,1378.9,890.25,1428.47,846.86,1462.01z"/>
		<path class="st2" d="M1499.32,1802.48c-18.28-7.95-37.67-17.41-58.25-28.62c-163.5-88.92-308.85-69.8-413.05-68.84
			c-104.23,0.95-113.78-9.58-113.78-9.58s-14.07-22.08-29.41-60.61c-9.24-23.17-18.96-52.33-26.32-86.17
			c35.76,50.81,130.3,112.83,204.11,105.66C1134.16,1647.41,1341.19,1663.68,1499.32,1802.48z"/>
		<path class="st2" d="M1433.32,1558.32c-80.55-41.93-183.47-101.2-197.17-136.39c-18.79-48.23-20.28-93.42-36.74-199.59
			c28.76,61.31,59.04,133.81,88.67,180.52C1306.84,1432.46,1363.63,1492.46,1433.32,1558.32z"/>
		<path class="st4" d="M803.32,1743.67c0,0,0.03,0,0,0.03c-0.81,2.7-2.3,5.36-4.49,8.03c-1.6,1.97-3.6,3.93-6.04,5.87
			c-5.11,4.07-10.87,7.08-17.11,9.18c-2.36,0.81-4.8,1.49-7.27,2.02c-44.27,9.86-105.64-19.13-118.08-42.75
			c-7.33-13.9-14.32-26.37-20.98-37.55c38.48,17.95,84.74,27.97,84.74,27.97s30.17-2.5,48.54-19.6
			C785.29,1707.18,809.02,1725.3,803.32,1743.67z"/>
		<path class="st5" d="M775.68,1766.79c-2.36,0.81-4.8,1.49-7.27,2.02c-3.26-6.74-3.93-14.24-5.48-21.54
			c-4.44-7.05-8.71-14.21-12.84-21.43c-0.25-0.42,0.34-0.87,0.67-0.51c5.98,6.18,11.85,12.5,17.53,18.96l0.2,0.25l0.28,0.73
			C771.36,1752.41,774.87,1759.23,775.68,1766.79z"/>
		<path class="st5" d="M803.32,1743.67c0,0,0.03,0,0,0.03c-0.81,2.7-2.3,5.36-4.49,8.03c-0.95-1.1-1.88-2.22-2.78-3.37
			c-3.2-4.58-5.36-9.91-8.34-14.69c-5.56-5.93-10.95-12.02-16.23-18.17c-0.31-0.36,0.17-0.93,0.56-0.62
			c6.83,4.77,13.59,9.69,20.19,14.8c1.91,2.36,3.76,4.77,5.76,7.08C800.01,1738.89,801.8,1741.23,803.32,1743.67z"/>
	</g>
</g>
<g>
	<g>
		<path class="st1" d="M1444.99,1895.95c6.03-1.86,13.18-0.05,18.53,2.6c5.35,2.65,9.82,6.15,15.65,8.29
			c4.9,1.8,10.51,2.29,15.95,1.72c2.72-0.28,5.39-0.83,7.98-1.62c9.02-2.41,18.4-8.01,17.23-15.22c-1.17-3.2-7.04-5.6-12.24-4.64
			c-3.73-0.01-7.46-0.02-11.19-0.04c-18.66-0.06-37.32-0.12-55.97-0.19c-3.29-0.01-7.97,1.33-6.55,3.35L1444.99,1895.95z"/>
		<path class="st1" d="M960.15,1919.09c-3.92-5.77-10.95-11.37-20.33-12.97c-10.55-1.6-23.45,0-26.97,6.4
			c-7.04,15.2,26.97,22.4,45.74,21.6c4.69,0,9.38-4,5.97-8.02C963.72,1923.9,962.21,1921.5,960.15,1919.09z"/>
		<path class="st1" d="M796.41,1725.48c-0.6-10.99-17.02-18.19-32.27-14.19c-2.64,0.4-4.76,1.35-6.32,2.63
			c-4.67,3.83-4.23,10.58,2.8,14.18c10.55,4,21.11,1.6,31.38-0.26C794,1727.3,795.56,1726.54,796.41,1725.48z"/>
		<path class="st1" d="M641.18,1416.33c3.43-4.5-3.61-8.5-9.47-10.1c-9.38-1.6-19.94-1.6-29.32,1.6c-7.04,3.2-12.9,9.6-7.04,15.2
			c11.73,8.8,30.49,4,41.46-2.38C638.9,1419.3,640.42,1417.84,641.18,1416.33z"/>
		<path class="st1" d="M364.73,1531.83c-1.11-2.26-2.78-4.2-4.9-5.91c-2.12-1.71-4.68-3.17-7.55-4.38
			c-11.46-4.85-27.88-5.74-41.17-7.34c-5.86-0.8-11.73,0-15.25,4c-3.52,4-1.17,8.8,4.69,12c11.73,5.87,26.06,9.6,40.08,9.5
			c3.5-0.02,7-0.3,10.44-0.87c3.43-0.58,6.78-1.51,10.01-2.8C363.2,1534.78,364.46,1533.34,364.73,1531.83z"/>
		<path class="st1" d="M727.48,1594.44c-17.52-9.99-46.84-17.99-65.6-6.79c-3.52,3.2-3.52,8,1.17,11.2
			c12.9,8.8,29.32,13.6,46.91,14.4c11.73,0.8,18.76-6.4,19.38-13.37C729.4,1597.8,728.78,1595.97,727.48,1594.44z"/>
		<path class="st1" d="M1366.14,1665.24c-5.82-8.52-22.24-7.72-33.96-4.52c-4.69,1.6-9.38,4-9.38,8c0,8.8,15.25,12,26.97,10.4
			c7.04-1.6,15.25-4,16.56-9.71C1366.83,1668.03,1366.8,1666.61,1366.14,1665.24z"/>
		<path class="st1" d="M280.31,1786.39c-7.67-2.97-14.45-6.38-23.77-5.11c-14.26,0.73-37.24,10.8-28.1,19.42
			c11.95,10.44,38.88,12.61,59.75,3.83c2.11-1.29,6.52-3.1,7.14-5.7c0.27-4.16-1.92-8.59-8.35-9.94
			C284.99,1788.02,282.76,1787.19,280.31,1786.39z"/>
		<path class="st1" d="M633.17,1578.59c0.56-3.74-5.3-6.14-11.17-6.94c-7.04-0.8-22.28,0-19.94,7.2c2.35,8,18.76,9.6,26.9,4.92
			C631.57,1582.45,633.17,1580.61,633.17,1578.59z"/>
		<path class="st1" d="M735.07,1472.01c-0.06-3.82-7.09-7.82-12.96-7.82c-4.69,0-8.21,1.6-10.55,4c-1.17,1.6-1.17,4,1.17,5.6
			c4.69,3.2,10.55,7.2,20.16,3.19C734.59,1475.74,735.46,1473.98,735.07,1472.01z"/>
		<path class="st1" d="M1300.95,1605.08c3.01-1.92,8.26-3.87,5.4-7.45c-5.87-6.04-15.79-6.64-24.95-6.62
			c-4.96-0.3-6.44,4.72-4.33,7.69c3.01,2.45,5.87,6.04,11.52,7C1293.01,1606.45,1297.48,1606.24,1300.95,1605.08z"/>
		<path class="st1" d="M1141.02,1789.34c-2.6-8.16-19.02-8.96-29.58-7.36c-3.52,0.8-7.04,2.4-7.04,5.6c3.52,8.8,22.28,9.6,33.1,6.67
			C1140.18,1793.09,1141.51,1791.36,1141.02,1789.34z"/>
		<path class="st1" d="M1715.49,1511.55c0.33-3.64-4.36-6.84-10.22-7.64c-4.69,0-8.21,1.6-10.55,4c-2.35,2.4,0,5.6,2.35,8
			c4.69,3.2,10.55,2.4,15.14,0.5C1714.28,1515.19,1715.49,1513.47,1715.49,1511.55z"/>
		<path class="st1" d="M849.8,1939.61c-7.32-8.68-30.78-11.08-35.47-2.28c-5.86,9.6,17.59,10.4,29.28,7.03
			C847.74,1943.21,850.23,1941.55,849.8,1939.61z"/>
		<path class="st1" d="M360.88,1752.54c-3.92-7.25-15.64-11.25-26.2-9.65c-4.69,1.6-7.04,5.6-3.52,8.8c5.86,5.6,16.42,8,25.93,5.49
			C360.05,1756.29,361.55,1754.68,360.88,1752.54z"/>
		<path class="st1" d="M2026.85,1714.36c-0.53-1.92-1.7-4.32-4.04-5.12c-8.21-3.2-17.59-2.4-23.45,2.4c-4.69,4.8,2.35,8,8.21,8.8
			c4.69,0,10.55,0.8,15.25-1.6C2025.35,1717.75,2026.89,1716.19,2026.85,1714.36z"/>
		<path class="st1" d="M1388.26,1946.38c0.72-3.45-5.14-5.05-8.66-5.85c-11.73-0.8-29.32,0.8-29.32,8.8
			c-1.17,8.8,22.28,7.2,31.66,2.78C1385.68,1950.48,1388.02,1948.44,1388.26,1946.38z"/>
		<path class="st1" d="M1615.59,1637.29c-8.55-12.61-44.9-23.01-51.94-13.41c-7.04,10.4,26.97,19.2,47.28,18.82
			C1613.85,1641.75,1615.68,1639.9,1615.59,1637.29z"/>
		<path class="st1" d="M1623.3,1922.09c6.09-2.37,13.12-7.17,7.26-11.17c-21.11-11.2-50.43-6.4-69.19,4.8c-4.69,3.2-5.86,9.6,0,12.8
			c16.42,8,35.18,4,50.86-1.86C1616.05,1925.3,1619.84,1923.77,1623.3,1922.09z"/>
	</g>
	<g>
		<g>
			<path class="st6" d="M945.29,1428.17c-0.64,2.43-7.68,6.43,2.88,7.23c4.69,0.8,4.69-5.6,0.31-7.07
				C947.38,1427.78,946.23,1427.66,945.29,1428.17z"/>
			<path class="st7" d="M663.45,1331.15c3.25,4.18,10.05,7.2,16.67,8.7c2.18-6.02,15.45,4.52,10.34-7.51
				c-4.05-5.92-12.46-4.47-21.49-4.14C665.45,1328.55,663.31,1329.52,663.45,1331.15z"/>
			<path class="st8" d="M1030.04,1923c3.85,0.34,6.79-0.31,7.92-1.37c1.13-1.06,0.45-2.52-2.95-3.82c-7.22-3.05-9.96,0.56-8.28,3.18
				C1027.3,1921.9,1028.43,1922.65,1030.04,1923z"/>
			<path class="st9" d="M1462.33,1496.6c9.09,17.95,30.98,21.7,32.71,2.81c2.56-20.65-18.87-21.02-28.47-13.22
				C1463.17,1488.85,1461.4,1492.51,1462.33,1496.6z"/>
			<path class="st10" d="M916.95,1308.07c1.01-5.76-4.28-8.79-8.45-3.75c-4.74,5.45,1.08,7.5,5.25,6.23
				C915.2,1310.12,916.41,1309.27,916.95,1308.07z"/>
			<path class="st11" d="M1240.58,1895.01c-3.4,1.78-1.47,4.94,2.64,4.55c5.95-0.18,3.53-3.14,0.46-4.25
				C1242.72,1894.92,1241.61,1894.78,1240.58,1895.01z"/>
			<path class="st12" d="M523.29,1825.17c-3.06,6.08-1.46,9.7,3.82,10.4c5.28,0.69,13.97-1.6,21.56-8.01
				c8.43-15.57-8.55-16.02-17.22-9.94C527.85,1819.61,524.82,1822.27,523.29,1825.17z"/>
			<path class="st13" d="M526.39,1688.89c-3.84-1.2-10.87-0.4-10.87,1.2c0,4,8.21,3.2,12.37,0.39
				C528.18,1689.83,527.72,1689.24,526.39,1688.89z"/>
			<path class="st14" d="M836.51,1546.05c-25,3.7-28.01,12.57-1.52,13.43c25.67,0.67,22.73-8.05,14.07-11.82
				C846.21,1546.3,841.89,1545.62,836.51,1546.05z"/>
			<path class="st15" d="M1492.28,1558.11c-0.86-2.36-4.38-3.96-7.89-4.76c-4.69,0-10.55,4.8-7.04,8c3.52,1.6,8.21,0.8,11.31-0.73
				C1490.72,1560.13,1492.16,1559.3,1492.28,1558.11z"/>
			<path class="st16" d="M1810.71,1848.28c-1.89-0.57-5.41-0.57-7.76,2.63c-1.17,3.2,1.17,6.4,4.69,6.4c7.04,1.6,5.86-3.2,5.44-6.07
				C1812.84,1849.89,1812.07,1848.79,1810.71,1848.28z"/>
			<path class="st17" d="M1225.75,1837.02c-11.66,0.14-21.73,2.67-26.4,5.74c-4.67,3.07-3.73,6.66,6.58,9.07
				c17.55,6.17,30.15-3.88,27.84-10.33C1232.71,1839.27,1229.99,1837.56,1225.75,1837.02z"/>
			<path class="st18" d="M2043.31,1641.38c-1.44-4.14-5.51-5.36-6.15-1.05c-0.75,4.22,3.29,4.68,5.2,3.22
				C2043.04,1643.02,2043.43,1642.26,2043.31,1641.38z"/>
			<path class="st19" d="M1553.13,1875.65c2.19-12.56-5.2-30.19-23.65-27.67c-22.14,2.52-14.76,27.7,12.17,31.27
				C1547.1,1880.06,1551.44,1879.02,1553.13,1875.65z"/>
			<path class="st20" d="M1689.17,1634.06c-3.78-0.05-8.47-0.05-8.47,1.56c-1.17,4.8,4.69,5.6,10.55,5.6c2.35-0.8,2.35-3.2,1.98-5
				C1692.38,1635.19,1690.97,1634.37,1689.17,1634.06z"/>
			<path class="st21" d="M1175.77,1497.87c7.46,0.56,11.32-2.64,4.78-5.11c-7.08-2.81-9.68,0.71-8.01,3.21
				C1173.11,1496.84,1174.21,1497.56,1175.77,1497.87z"/>
			<path class="st22" d="M722.97,1950.02c-0.09,4.5,4.34,6.54,6.96,2.42c3.01-4.46-1.72-5.72-4.78-4.51
				C724.07,1948.34,723.25,1949.06,722.97,1950.02z"/>
			<path class="st23" d="M939.71,1572.27c-4.58-0.53-11.62-2.13-12.79,1.08c-2.35,4.8,9.38,4.8,14.07,4.8
				c1.17-0.8,1.17-2.4,1.41-3.48C942.33,1573.71,941.52,1572.83,939.71,1572.27z"/>
			<path class="st24" d="M514.09,1864.76c-9.52-1.48-9.95,3.14,2.2,7.56c15.54,4.86,11-0.44,4.37-4.4
				C518.72,1866.54,516.44,1865.37,514.09,1864.76z"/>
			<path class="st25" d="M777.92,1907.98c6.57,21.17,30.54,27.52,36.41,6.32c7.17-23.11-16.99-25.58-29.46-17.7
				C780.47,1899.3,777.71,1903.27,777.92,1907.98z"/>
			<path class="st26" d="M372.11,1616.73c-3.87,1.86-7.39,4.26-7.39,6.66c0,0.8,2.35,2.4,4.69,2.4c9.38,0,22.28-2.4,24.63-8.8
				c1.17-2.4-5.86-2.4-9.71-2.51C380.66,1614.63,376.28,1615.37,372.11,1616.73z"/>
			<path class="st27" d="M459.89,1585.72c-8.68-3.81-16.31-1.48-10.47,4.3c6.19,6.42,12.55,3.17,12.73-0.6
				C462.25,1588.1,461.53,1586.76,459.89,1585.72z"/>
			<path class="st28" d="M1629.45,1980.85c-2.4,2.09-8.27,5.29-4.75,6.89c4.69,3.2,14.07-4.8,9.04-7.93
				C1632.59,1979.62,1631.08,1979.92,1629.45,1980.85z"/>
			<path class="st29" d="M1129.7,1459.58c-4.36-0.9-7.88,1.5-6.71,4.7c2.35,4,7.04,8.8,12.9,6.4c3.52-1.6,2.35-5.6-1.02-7.87
				C1133.47,1461.2,1131.65,1459.96,1129.7,1459.58z"/>
			<path class="st30" d="M418.01,1792.2c3.46-1.3,10.49,0.3,8.15-3.7c-1.17-4-8.21-4-12.9-3.2c-1.17,0.8-5.86,0.8-0.4,5.19
				C414.01,1791.4,415.8,1792.06,418.01,1792.2z"/>
			<path class="st31" d="M174.43,1682.89c9.41,3.78,17.34,1.1,10.81-4.84c-6.94-6.61-13.47-3-13.43,1
				C171.79,1680.44,172.63,1681.84,174.43,1682.89z"/>
			<path class="st32" d="M728.61,1381.11c2.57,0.19,6.08,0.19,6.08-0.61c2.35-3.2-7.04-4-7.98-1.04
				C726.88,1380.09,727.5,1380.7,728.61,1381.11z"/>
			<path class="st33" d="M1105.13,1550.06c3.56,6.39,16.46,5.59,17.63-0.81c0-3.2-3.52-8-9.38-6.4c-2.35,0.8-4.69,1.6-6.34,2.89
				C1105.28,1546.97,1104.45,1548.51,1105.13,1550.06z"/>
			<path class="st34" d="M1426.83,1912.24c9.01-2.47,10.56-7.73,0.88-7.82c-10.59-0.26-10.41,4.84-6.27,6.99
				C1422.86,1912.17,1424.76,1912.53,1426.83,1912.24z"/>
			<path class="st35" d="M736.45,1811.27c-8.09-3.52-20.64-9.28-28.86-5.04c-16.49,5.63,4.5,18.54,25.3,21.48
				c12.45,0.05,12.37-4.22,10.48-6.6C743.62,1818.26,741.42,1814.75,736.45,1811.27z"/>
			<path class="st36" d="M874.02,1870.04c-5.16,0.27-8.75,1.65-9.83,3.25c-1.08,1.6,0.36,3.4,5.25,4.51
				c5.3,1.28,8.53,0.63,10.02-0.74c1.49-1.37,1.24-3.45-0.36-4.99C878.02,1870.97,876.26,1870.19,874.02,1870.04z"/>
			<path class="st37" d="M1973.77,1691.82c-6.63-0.95-14.84-2.55-20.71,0.65c-1.17,1.6,0,4,2.35,5.6c7.04,3.2,21.11,4.8,23.15-2.7
				C1978.46,1693.98,1976.95,1692.67,1973.77,1691.82z"/>
			<path class="st38" d="M1399.7,1873.01c8.45,1.62,15.34,0.98,18.58-0.94c3.23-1.92,2.8-5.13-3.4-8.64
				c-18.09-8.04-25.79-1.22-22.24,4.6C1393.49,1870.05,1395.84,1871.89,1399.7,1873.01z"/>
			<path class="st39" d="M658.78,1528.2c-1.61-2.48,8.99-6.43,2.59-6.46c-10.66-0.04-16.96,5.53-16.9,9.54
				c-2.12,0.79,4.27,0.82,6.46,0.15C653.41,1530.86,656.22,1529.76,658.78,1528.2z"/>
			<path class="st40" d="M1707.5,1543.8c-2.73-2.98-5.4-4.54-6.95-4.47c-1.55,0.07-1.98,1.76-0.2,5.4c3.39,6.71,7.85,5.82,8.32,2.76
				C1708.83,1546.43,1708.47,1545.09,1707.5,1543.8z"/>
			<path class="st41" d="M1709.77,1916.29c4.05-1.36,11.09-4.56,6.4-6.16c-7.04-3.2-16.42-1.6-23.45,1.6c-4.69,3.2,5.86,4,7.78,5.02
				C1703.75,1917.14,1707.09,1917.04,1709.77,1916.29z"/>
			<path class="st42" d="M2029.75,1824.07c7.22-14.37-17.03-26.78-32.19-12.3c-12.13,10.34,6.06,16.55,20.84,15.19
				C2023.58,1827.42,2027.83,1826.61,2029.75,1824.07z"/>
			<path class="st43" d="M748.8,1604.01c7.07,1.41,14.68,0.33,10.2-2.04c-5.05-2.67-11.31-1.2-11.77,0.48
				C746.98,1603.03,747.45,1603.6,748.8,1604.01z"/>
		</g>
	</g>
</g>
</svg>
