<?xml version="1.0" encoding="utf-8"?>
<!-- Generator: Adobe Illustrator 28.1.0, SVG Export Plug-In . SVG Version: 6.00 Build 0)  -->
<svg version="1.1" id="Layer_1" xmlns="http://www.w3.org/2000/svg" xmlns:xlink="http://www.w3.org/1999/xlink" x="0px" y="0px"
	 viewBox="0 0 1077.17 623.62" style="enable-background:new 0 0 1077.17 623.62;" xml:space="preserve">
<style type="text/css">
	.st0{fill-rule:evenodd;clip-rule:evenodd;fill:#FFFFFF00;}
	.st1{fill-rule:evenodd;clip-rule:evenodd;fill:#CBCBCB;}
	.st2{fill-rule:evenodd;clip-rule:evenodd;}
	.st3{fill-rule:evenodd;clip-rule:evenodd;fill:#482915;}
	.st4{fill-rule:evenodd;clip-rule:evenodd;fill:#B4876D;}
	.st5{fill-rule:evenodd;clip-rule:evenodd;fill:url(#SVGID_1_);}
	.st6{fill-rule:evenodd;clip-rule:evenodd;fill:#59331A;}
	.st7{fill-rule:evenodd;clip-rule:evenodd;fill:#CC997B;}
	.st8{fill-rule:evenodd;clip-rule:evenodd;fill:#B2B2B2;}
	.st9{fill-rule:evenodd;clip-rule:evenodd;fill:#866651;}
	.st10{fill-rule:evenodd;clip-rule:evenodd;fill:#808080;}
	.st11{fill-rule:evenodd;clip-rule:evenodd;fill:url(#SVGID_00000137823853102640684630000012443707407314788520_);}
	.st12{fill-rule:evenodd;clip-rule:evenodd;fill:#333333;}
</style>
<rect y="0" class="st0" width="1077.17" height="623.62"/>
<path class="st1" d="M387.41,529c-7.22-2.75-28.41-4.44-34.91-8.8c-3.68-0.22-7.43-0.43-11.35-0.58c-3.44,2.55-11.19,7.91-13.78,9.9
	c-2.59,1.98-9.73,5.59-13.06,6.79c-6.61,2.36-19.21,3.42-33.68,3.17c-14.47-0.25-16.26-6.71-5.74-6.56
	c3.19-1.78,16.58-0.41,21.16-0.06c2.87-1.87,6.69-3.37,10.03-5.79c3.11-2.25,4.81-7.52,6.92-11.21
	c-25.19-2.85-53.83-9.78-76.95-11.74c-2.83,2.72-7.13,5.41-22.31,11.21c-0.5,0.19-1,0.39-1.5,0.59c0.88,2.06,1.73,3.93,2.52,5.55
	c6.42-2.04,14.81-2.8,21.13,1.85c6.32,4.65,6.77,20.8-0.93,19.94c-3.03,1.88-4.49,3.36-13.68,3.46c-0.63,0.06-1.33,0.1-2.12,0.1
	c-10.87-0.03-19.12-3.8-23.6-7.18c-2.11-1.59-4.58-3.96-10.77-7.45c-7.84-4.41-12.01-5.56-10.51-9.29c0.88-2.2,1.89-4.36,0.02-8.02
	c-10.52,1.49-18.48,2.63-23.73,4.3c0.83,6.99-3.75,15.9-9.22,13.57c-3.65,1.01-5.43,2.08-16.1-1.23c-4.04-1.25-7.29-2.86-9.81-5.72
	c-3.58-6.3,2.96-12.28,11.29-14.53c6.42-1.73,15.32-0.67,23.08-5.16c3.2-1.85,4.21-6.26,5.97-9.96c-2.8-5.28,0.26-10.96,3.77-15.09
	c-38.11-0.21-123.16,7.99-106.46-13c1.3-1.64,3.84-4.24,6.36-5.09c-0.22,1.58-0.82,3.52-1.86,5.22
	c-11.85,19.41,89.96,8.29,108.56,6.93c17.98-2.12,36.54-3.93,78.02-3.13c65.16,1.26,107.34,12.45,136.34,12.96
	c22.64,0.4,36.04,3.77,44.05,8.73c6.3,3.9,10.65,7.23,17.41,10.24c3.01-0.22,5.37,0.67,7.59,1.14c1.35,0.28,1.13,1.58,0.78,1.97
	c11.24,3.49,23.52,3.78,26.96,9.4c15.08,1.59,8.11,7.03,8.8,8.04c3.67,2.31,22.81,4.96,17.85,10.72c-2.06,2.39-4.8,2.42-8.57,3.8
	c-6.31,2.31-12.07,1.66-16.9,2.45c-15.22,3.13-25.48-2.09-31.26-11.49c-3.96,11.05-19.57,19.71-39.23,16.12
	c-9.54-1.74-10.12-6.17-7.33-11.5C396.12,532.96,391.93,530.71,387.41,529z"/>
<g>
	<polygon class="st2" points="412.66,472.46 415.99,468.54 412.38,465.18 	"/>
	<path class="st2" d="M449.94,416.34c1.22-2.86,0.49-5.35,0.37-6.41c-1.27,0.35-2.95,0.96-3.98,1.32
		C447.38,412.59,448.76,414.91,449.94,416.34z"/>
	<path class="st3" d="M177.42,447.4c-14.58,6.67-26.95,13.14-31.29,21.12c-6.59,12.13-11.5,31.38-13.78,40.84
		c2.65-0.73,10.11,0.46,14.99,6.41c4.88,5.95,1.17,20.73-6.02,17.86c-3.64,0.95-5.43,1.97-16.09-1.16
		c-10.67-3.13-17.09-9.88-13.72-28.92c0.88-4.98,6.57-20.65,8.52-34.97c1.69-12.42,0.73-15.06,9.06-22.49
		c6.42-5.72,12.82-11.31,20.58-26.15c4.36-8.33,4.66-32.31,8.31-44.76c0.26,7.97,1.48,15.96,4.15,23.36
		c2.38,6.6,12.35,34.25,14.18,42.9C176.75,443.55,177.12,445.53,177.42,447.4z"/>
	<path class="st3" d="M386.7,462.37c-9.19-0.1-24.47-2.25-34.39-4.13c6.25,14.2,29.02,47.87,35.1,63.32
		c4.11,10.45,13.02,14.55,23.15,14.62c11,0.07,12.67-1.11,15.8-3.26c8.81,0.48,6.23-16.56-1.24-20.43
		c-7.47-3.87-14.13-1.24-17.08-0.26C401.81,496.77,389,475.7,386.7,462.37z"/>
	<path class="st4" d="M404.37,503.91c-6.51,7.3-21.82,7.49-21.82,7.49c2.05,3.85,3.73,7.31,4.85,10.16
		c4.11,10.45,13.02,14.55,23.15,14.62c11,0.07,12.67-1.11,15.8-3.26c8.81,0.48,6.23-16.56-1.24-20.43
		c-7.47-3.87-14.13-1.24-17.08-0.26C406.97,509.59,405.72,506.8,404.37,503.91z"/>
	<linearGradient id="SVGID_1_" gradientUnits="userSpaceOnUse" x1="280.3566" y1="407.2628" x2="208.9876" y2="536.0158">
		<stop  offset="0" style="stop-color:#75431E"/>
		<stop  offset="1" style="stop-color:#522400"/>
	</linearGradient>
	<path class="st5" d="M380.52,342.15c22.64,1.32,36.04,12.47,44.05,28.88c8.6,17.62,13.57,31.73,26.01,44.38
		c10.73,10.9,23.32,12.36,26.74,30.85c15.08,5.26,8.11,23.25,8.8,26.59c2.69,6.52,8.76,23.16,16.2,37.07
		c4.3,8.04,7.52,15.48,2.56,20.91c-5.78,6.32-18.87,9.87-26.39,11.02c-26.52,5.14-37.99-13.62-36.92-35.5
		c1.07-21.88-15.97-21.4-22.84-33.62c-6.02-10.71-21.91-8.71-31.46-8.94c-17.74-0.2-30.48-5.06-46.12-7.03
		c-3.44,8.43-11.19,26.17-13.78,32.73c-2.59,6.55-9.73,18.5-13.06,22.44c-6.61,7.81-19.21,11.3-33.68,10.49
		c-14.47-0.81-16.26-22.19-5.74-21.7c3.2-5.9,16.58-1.35,21.16-0.2c2.87-6.19,6.69-11.14,10.03-19.14
		c3.11-7.45,4.81-24.88,6.92-37.08c-25.19-9.43-53.96-24.5-77.07-30.99c-2.83,9-6.52,17.1-21.69,36.3
		c-6.8,8.61-15.48,21.46-13.19,34.23c2.44,13.59,11.02,30.13,15.59,39.02c6.42-1.92,12.93-2.53,19.25,1.87
		c6.32,4.39,6.77,19.63-0.93,18.82c-3.25,1.91-4.69,3.37-15.8,3.26c-11.12-0.11-19.25-4.85-23.72-16.01
		c-2.11-5.26-4.58-13.1-10.77-24.63c-7.84-14.59-12.01-18.38-10.51-30.74c1.03-8.54,2.24-16.85-1.22-33.23
		c-1.82-8.65-11.8-36.3-14.18-42.9c-7.36-20.43-3.69-45.27,0.67-62.18c-38.11-0.7-123.16,26.42-106.46-43
		c1.3-5.41,3.84-14.03,6.36-16.83c-0.22,5.24-0.82,11.62-1.86,17.26c-11.85,64.21,89.96,27.4,108.56,22.94
		c17.98-7,36.54-13,78.02-10.34C309.21,311.31,351.51,340.45,380.52,342.15z"/>
	<path class="st6" d="M441.57,404.29c1.62,2.42,3.37,4.78,5.33,7.09c-19.19,5.9-29.34,32.67-32.45,56.6
		c-3.36-2.39-7.64-3.44-12.05-3.89c2.35-23.83,20.24-55.62,38.98-59.76C441.44,404.31,441.51,404.3,441.57,404.29z"/>
	<path class="st7" d="M488.63,479.18c3.19,8.09,8.04,20.19,13.68,30.73c4.3,8.04,7.52,15.48,2.56,20.91
		c-5.78,6.32-18.87,9.87-26.39,11.02c-23.83,4.62-35.51-10.07-36.85-28.97c-0.56-20.74,8.66-19.04,24.43-20.49
		C474.47,491.6,479.96,481.42,488.63,479.18z"/>
	<path class="st2" d="M503.24,511.66c-7.21,3.61-13.66,10.4-5.53,24.29C512.52,532.02,512.12,527.12,503.24,511.66z"/>
	<path class="st2" d="M466.26,542.49c-7.1-3.47-9.15-9.04-10.69-13.63c-1.53-4.56-2.57-8.15-7.59-7.74
		c-1.48,0.12-0.99,1.67,0.18,1.86c4.84,0.8,5.23,5.48,6.93,10.25c1.08,3.04,2.7,6.12,6.35,8.25
		C462.93,541.88,464.54,542.21,466.26,542.49z"/>
	<path class="st8" d="M506.62,529.66c1.08,0,1.96-1.27,1.96-2.82c0-1.55-0.88-2.82-1.96-2.82c-1.08,0-1.96,1.27-1.96,2.82
		C504.66,528.39,505.54,529.66,506.62,529.66z"/>
	<path class="st9" d="M494.92,529.97c0.19,8.25-20.16,12.41-28.66,12.52c3.65,0.4,7.72,0.22,12.22-0.65
		c5.17-0.79,12.97-2.72,19.22-5.9C496.44,533.79,495.53,531.8,494.92,529.97z"/>
	<path class="st0" d="M461.39,464.41c0.97,0.34,6.7-0.7,11.69,7.14C472.24,492.43,459.18,479.62,461.39,464.41z"/>
	<path class="st2" d="M472.73,475.51c-1.01,6.67-3.74,8.03-6.29,6.26c-0.42-1.16-0.67-2.58-0.68-4.11c-0.04-3.99,1.52-7.24,3.5-7.26
		C470.86,470.38,472.25,472.54,472.73,475.51z"/>
	<path class="st8" d="M470.27,476.24c0.52,0,0.94-0.86,0.94-1.92c0-1.06-0.42-1.92-0.94-1.92c-0.52,0-0.94,0.86-0.94,1.92
		C469.33,475.37,469.75,476.24,470.27,476.24z"/>
	<path class="st7" d="M323.22,497.97c-4.84-4.7-14.47,3.28-24.36-2.86c-1,1.77-1.96,3.53-2.83,5.4c-4.58-1.15-17.97-5.7-21.16,0.2
		c-10.51-0.48-8.73,20.89,5.74,21.7c14.47,0.81,27.07-2.69,33.68-10.49C316.44,509.39,320.15,503.55,323.22,497.97z"/>
	<path class="st10" d="M407.43,465.91l5.32,3.1c1.74,1.01,2.33,3.26,1.32,5l-0.77,1.33c-1.01,1.74-3.26,2.33-5,1.32l-5.32-3.1
		c-1.74-1.01-2.33-3.26-1.32-5l0.77-1.33C403.45,465.49,405.69,464.89,407.43,465.91L407.43,465.91z M407.25,467.2
		c-1.26-0.74-2.9-0.31-3.63,0.96l-0.56,0.97c-0.74,1.26-0.31,2.9,0.96,3.63l4.46,2.6c1.26,0.74,2.9,0.31,3.63-0.96l0.56-0.97
		c0.74-1.26,0.31-2.9-0.96-3.63L407.25,467.2z"/>
	
		<linearGradient id="SVGID_00000039837541080100534500000011165130211778606476_" gradientUnits="userSpaceOnUse" x1="389.5513" y1="492.6726" x2="457.0633" y2="380.3138">
		<stop  offset="0" style="stop-color:#000000"/>
		<stop  offset="0.58" style="stop-color:#5A5D5E"/>
		<stop  offset="1" style="stop-color:#000000"/>
	</linearGradient>
	<path style="fill-rule:evenodd;clip-rule:evenodd;fill:url(#SVGID_00000039837541080100534500000011165130211778606476_);" d="
		M449.56,408.64c0.83,0.58,1.33,2.4-0.33,2.82c-21.43,5.42-34.17,35.05-36.47,60.65c-0.09,1.01-1.64,1.17-2.52,0.66
		c-1.73-1.01-2.74-1.59-4.47-2.6c-0.88-0.51-1.44-1.93-1.39-2.94c1.32-24.04,18.67-58.17,38.04-62.46
		C444.75,404.26,447.77,407.39,449.56,408.64z"/>
	<path class="st7" d="M210.35,510.23c-8.47,2.5-16.67-4.28-24.05-0.93c5.01,9.84,7.22,16.73,9.13,21.5
		c4.47,11.17,12.61,15.91,23.72,16.01c11.12,0.11,12.55-1.36,15.8-3.26c7.69,0.81,7.24-14.43,0.93-18.82
		c-6.32-4.39-12.83-3.79-19.25-1.87C214.92,519.53,212.65,515.14,210.35,510.23z"/>
	<path class="st4" d="M136.7,493.02c-7.93-1.94-11.56-6.94-19.66-9.64c-2.3,9.05-4.94,16.9-5.52,20.17
		c-3.36,19.04,3.06,25.79,13.72,28.92c10.67,3.13,12.45,2.11,16.09,1.16c7.18,2.87,10.9-11.91,6.02-17.86
		c-4.88-5.95-12.34-7.14-14.99-6.41C133.34,505.28,134.81,499.38,136.7,493.02z"/>
	<path class="st2" d="M417.9,460.59c0.56-16.41,28.32-21.37,24.85-10.09c-10.34,33.56,11.02,59.68,4.78,79.61
		c-3.4,10.85-19.33,19.58-39.54,16.1c-15.03-2.59-6.96-13.11-0.34-19.84C431.65,501.95,417,487.08,417.9,460.59z"/>
	<path class="st3" d="M312.98,444.29c2-14.55,3.66-22.9,15.43-26.35c9.63-2.83,10.73-2.99,18.31-7.86
		c-8.36,3.21-12.05,4.63-19.33,6.39c-12.39,2.99-15.89,11.47-18.13,26.4C310.51,443.35,311.75,443.83,312.98,444.29z"/>
	<path class="st3" d="M237.68,372.4c2.18,13.36,1.14,29.42-1.76,40.9c1,0.28,2.95,0.87,3.98,1.18
		C242.17,402,242.09,384.88,237.68,372.4z"/>
	<path class="st12" d="M435.75,454.12c2.99-11.15,5.3-9.53,3.56,0.96c-7.29,21.08,1.07,42.4,4.98,64.71
		c2.62,14.96-14.02,22.64-28.25,23.3c12.11-3.17,24.66-7.79,23.92-22.69C438.92,499.37,430.08,475.28,435.75,454.12z"/>
	<path class="st6" d="M452.47,452.03c9.19-11.97,22.16-3.6,26.1,14.03C473.47,451.94,463.15,442.03,452.47,452.03z"/>
	<path class="st6" d="M221.16,527.31c11.54,1.34,15.58,7.21,13.8,16.24c0.83,0.13,1.9-0.05,2.52-0.4
		C237.92,533.42,233.53,526.51,221.16,527.31z"/>
	<path class="st6" d="M132.78,514.11c10.67,4.6,12.86,11.38,8.55,19.51c0.76,0.36,1.84,0.49,2.53,0.34
		C147.08,524.78,144.86,516.9,132.78,514.11z"/>
	<path class="st6" d="M288.33,517.23c-11.51-1.58-15.43-7.53-13.46-16.52c-0.83-0.15-1.9,0.01-2.52,0.35
		C271.7,510.77,275.95,517.77,288.33,517.23z"/>
	<path class="st7" d="M392.78,463.77c-9.08-10.56-41.46-9.51-51.36-6.99C359.24,459.53,373.99,464.59,392.78,463.77z"/>
	<path class="st7" d="M311.12,433.48c-12.3-2.7-52.15-22.82-70.16-27.08c-0.25,2.83-0.62,5.55-1.08,8.08
		c21.22,6.63,46.55,19.48,69.37,28.38C309.78,439.39,310.37,436.27,311.12,433.48z"/>
</g>
<g>
	<path class="st2" d="M940.51,544.64l1.24-15.1l-11.04-0.91c-8.3-0.68-15.38,2.16-15.72,6.31c-0.34,4.15,6.17,8.11,14.48,8.79
		L940.51,544.64L940.51,544.64z M1042.9,542.59c3.27-8.26-21.86-13.86-41.73-16.08c-19.87-2.21-28.46,5.21-47.12,4.03l-1.24,15.1
		c11.14,3.1,22.85,6.25,41.82,7.8C1013.61,555.01,1039.63,550.85,1042.9,542.59z"/>
	<path class="st2" d="M747.21,501.75l1.14,15.11l-11.04,0.83c-8.31,0.63-15.36-2.26-15.68-6.41c-0.31-4.15,6.23-8.07,14.54-8.69
		L747.21,501.75L747.21,501.75z M849.58,504.45c3.22,8.28-21.95,13.72-41.83,15.81c-19.89,2.09-28.42-5.39-47.09-4.34l-1.14-15.11
		c11.16-3.03,22.89-6.1,41.87-7.53C820.37,491.85,846.36,496.18,849.58,504.45z"/>
	<path class="st2" d="M553.96,545.28l1.84-15.04l-10.99-1.35c-8.27-1.01-15.45,1.54-15.96,5.67c-0.51,4.14,5.84,8.35,14.11,9.36
		L553.96,545.28L553.96,545.28z M656.35,547.35c3.6-8.12-21.28-14.73-41.05-17.74c-19.77-3.01-28.64,4.06-47.24,2.14l-1.84,15.04
		c11.01,3.55,22.58,7.16,41.47,9.48C626.58,558.58,652.74,555.47,656.35,547.35z"/>
</g>
</svg>
