<?xml version="1.0" encoding="UTF-8"?>
<svg id="Ebene_2" data-name="Ebene 2" xmlns="http://www.w3.org/2000/svg" viewBox="0 0 324.01 60.25">
  <g id="Layer_3" data-name="Layer 3">
    <g>
      <path d="M49,46.53c-2.6,2.95-5.73,5.28-9.29,6.92-3.69,1.7-7.63,2.56-11.72,2.56-3.78,0-7.45-.74-10.9-2.2-3.33-1.41-6.33-3.43-8.9-6-2.57-2.57-4.59-5.56-6-8.9-1.46-3.46-2.2-7.12-2.2-10.9s.74-7.45,2.2-10.9c1.41-3.33,3.43-6.33,6-8.9,2.57-2.57,5.57-4.59,8.9-6C20.56.74,24.23,0,28,0,32.09,0,36.03.87,39.72,2.57c3.56,1.64,6.68,3.97,9.29,6.92,1.43,1.62,1.28,4.09-.34,5.52-1.62,1.43-4.1,1.28-5.53-.34-1.88-2.13-4.13-3.81-6.7-4.99-2.65-1.22-5.49-1.84-8.44-1.84-5.39,0-10.46,2.1-14.27,5.91-3.81,3.81-5.91,8.88-5.91,14.27s2.1,10.46,5.91,14.27c3.81,3.81,8.88,5.91,14.27,5.91,2.95,0,5.79-.62,8.44-1.84,2.57-1.18,4.82-2.86,6.7-4.99,1.43-1.62,3.91-1.78,5.53-.34,1.62,1.43,1.77,3.91.34,5.53Z" fill="#ef4623" stroke-width="0"/>
      <path d="M70.63,3.92v48.18c0,2.16-1.75,3.91-3.92,3.91s-3.91-1.75-3.91-3.91V3.92C62.8,1.76,64.55,0,66.71,0s3.92,1.75,3.92,3.92Z" fill="#ef4623" stroke-width="0"/>
      <path d="M130.04,3.92v48.18c0,1.68-1.08,3.18-2.68,3.71-.41.14-.83.2-1.24.2-1.21,0-2.38-.56-3.13-1.56l-29.09-38.79v35.84c0,2.16-1.75,3.92-3.92,3.92s-3.91-1.75-3.91-3.92V3.92c0-1.68,1.08-3.18,2.68-3.71,1.6-.53,3.36.02,4.37,1.37l29.09,38.78V3.92C122.21,1.76,123.96,0,126.13,0s3.91,1.75,3.91,3.92Z" fill="#ef4623" stroke-width="0"/>
      <path d="M153.35,31.92v16.26h26.2c2.16,0,3.91,1.75,3.91,3.91s-1.75,3.92-3.91,3.92h-30.11c-2.16,0-3.91-1.75-3.91-3.92V3.92c0-2.16,1.75-3.92,3.91-3.92h30.11c2.16,0,3.91,1.75,3.91,3.92s-1.75,3.91-3.91,3.91h-26.2v16.26h26.2c2.16,0,3.91,1.75,3.91,3.91s-1.75,3.92-3.91,3.92h-26.2Z" fill="#ef4623" stroke-width="0"/>
      <path d="M236.28,3.92c0,2.16-1.75,3.91-3.91,3.91h-14.15v44.26c0,2.16-1.75,3.92-3.91,3.92s-3.92-1.75-3.92-3.92V7.83h-14.15c-2.16,0-3.91-1.75-3.91-3.91S194.07,0,196.23,0h36.14c2.16,0,3.91,1.75,3.91,3.92Z" fill="#ef4623" stroke-width="0"/>
      <path d="M255.02,3.92v48.18c0,2.16-1.75,3.91-3.92,3.91s-3.91-1.75-3.91-3.91V3.92c0-2.16,1.75-3.92,3.91-3.92s3.92,1.75,3.92,3.92Z" fill="#ef4623" stroke-width="0"/>
      <path d="M322.19,37.93c-1.29,3.4-3.19,6.47-5.65,9.13-1.86,2-3.97,3.7-6.31,5.08l1.12,2.71c.83,2-.12,4.29-2.12,5.11-.49.2-1,.3-1.5.3-1.54,0-2.99-.91-3.62-2.42l-1.12-2.71c-2.07.54-4.18.83-6.34.88-.22,0-.44,0-.66,0-3.39,0-6.73-.61-9.92-1.82-3.4-1.29-6.47-3.19-9.13-5.65-2.75-2.55-4.93-5.59-6.49-9.04s-2.38-7.09-2.47-10.84c-.08-3.62.53-7.18,1.81-10.58,1.29-3.4,3.19-6.47,5.65-9.13,2.55-2.75,5.59-4.94,9.04-6.49,3.44-1.55,7.09-2.38,10.84-2.47,3.62-.08,7.18.52,10.58,1.81s6.47,3.19,9.13,5.65c2.75,2.55,4.93,5.59,6.49,9.03,1.55,3.44,2.38,7.09,2.47,10.84.08,3.62-.53,7.18-1.81,10.58ZM314.4,19.72c-2.21-4.91-6.21-8.67-11.25-10.58-2.32-.88-4.74-1.32-7.15-1.32-2.82,0-5.63.6-8.28,1.79-4.91,2.21-8.67,6.21-10.58,11.25-1.91,5.04-1.74,10.52.47,15.43,2.21,4.91,6.21,8.67,11.25,10.58,2.32.88,4.74,1.32,7.15,1.32,1.33,0,2.65-.13,3.95-.4l-.73-1.77c-.83-2,.12-4.29,2.12-5.12,2-.83,4.29.12,5.11,2.12l.73,1.76c3.49-2.32,6.16-5.65,7.67-9.65,1.91-5.04,1.74-10.52-.47-15.43Z" fill="#ef4623" stroke-width="0"/>
    </g>
  </g>
</svg>