<?xml version="1.0" encoding="UTF-8"?>
<svg id="Layer_1" data-name="Layer 1" xmlns="http://www.w3.org/2000/svg" viewBox="0 0 497.8 497.8">
  <defs>
    <style>
      .cls-1 {
        fill: #ef4623;
      }

      .cls-1, .cls-2 {
        stroke-width: 0px;
      }

      .cls-2 {
        fill: #fff;
      }
    </style>
  </defs>
  <rect class="cls-1" width="497.8" height="497.8" rx="131.39" ry="131.39"/>
  <g>
    <path class="cls-2" d="M386.21,142.01c-6.77-12.46-20.96-34.29-47.02-51.4-14.36-9.41-28.13-14.64-38.66-17.65-18.61-5.21-48.46-10.62-83.5-4.02-12.51,2.34-23.51,5.83-32.85,9.55-39.38,15.19-66.55,41.58-83.4,65.81.82.14,1.61.58,2.19,1.29l6.23,7.82c1.23,1.54.97,3.78-.56,5.01l-4.26,3.4c-1.55,1.23-3.8.98-5.03-.57l-5.24-6.59c-1.64,2.73-3.17,5.41-4.57,8.05l3.5,4.39c1.23,1.54.97,3.81-.57,5.04l-4.25,3.39c-1.43,1.15-3.52,1-4.78-.3-2.18,4.92-3.96,9.47-5.38,13.48-1.7,4.8,4.16,8.66,7.92,5.23,8.68-7.92,17.37-15.85,26.04-23.76,8.87-8.59,26.1-22.6,51.19-27.66,7.02-1.4,13.54-1.89,19.31-1.87,53.9,3.15,84.67,39.31,84.67,39.31,21.25,21.38,42.49,42.76,63.74,64.13,4.64,4.67,12.17,4.91,17.01.44l.09-.08-3.08-3.08c-1.4-1.4-1.4-3.66,0-5.06l7.07-7.07c1.39-1.39,3.67-1.39,5.06,0l3.06,3.06c.33-.37.66-.72,1-1.08,4.32-4.78,8.19-9.46,11.62-13.98,4.43-4.81,16.34-19.05,18.6-40.88,1.61-15.74-2.55-28.17-5.14-34.36ZM124.58,145.76l-4.58,2.94c-1.66,1.08-3.87.59-4.95-1.07l-5.41-8.4c-1.07-1.64-.59-3.87,1.07-4.93l4.57-2.96c1.66-1.07,3.88-.59,4.95,1.07l5.42,8.4c1.07,1.66.58,3.88-1.07,4.95ZM142.79,136.8l-5.02,2.08c-1.84.75-3.92-.1-4.69-1.92l-3.83-9.24c-.75-1.82.1-3.92,1.94-4.67l5.02-2.08c1.82-.77,3.92.1,4.67,1.92l3.83,9.22c.77,1.84-.1,3.92-1.92,4.69ZM162.11,131.11l-5.32,1.1c-1.94.42-3.83-.82-4.23-2.76l-2.06-9.78c-.4-1.92.84-3.81,2.78-4.23l5.32-1.12c1.92-.4,3.83.84,4.23,2.78l2.05,9.76c.42,1.94-.82,3.83-2.76,4.25ZM186.2,125.87c-.07,1.98-1.71,3.53-3.69,3.46l-5.44-.16c-1.98-.05-3.52-1.71-3.46-3.69l.3-9.97c.07-1.98,1.71-3.53,3.69-3.48l5.44.17c1.98.05,3.53,1.71,3.46,3.67l-.3,9.99ZM208.66,118.94l-1.82,9.81c-.35,1.94-2.22,3.24-4.16,2.87l-5.35-.98c-1.94-.37-3.22-2.22-2.87-4.16l1.82-9.83c.37-1.94,2.22-3.24,4.16-2.87l5.35.98c1.94.37,3.24,2.24,2.87,4.18ZM231.02,125.94l-3.46,9.38c-.68,1.85-2.73,2.8-4.58,2.12l-5.11-1.89c-1.85-.68-2.8-2.73-2.12-4.58l3.45-9.38c.68-1.85,2.73-2.8,4.58-2.12l5.11,1.87c1.85.68,2.82,2.75,2.13,4.6ZM251.14,135.58l-4.67,8.83c-.91,1.75-3.08,2.41-4.83,1.49l-4.81-2.54c-1.75-.93-2.41-3.1-1.49-4.85l4.67-8.82c.93-1.75,3.08-2.41,4.83-1.5l4.81,2.55c1.75.93,2.41,3.08,1.49,4.83ZM262.93,155.87c-1.21,1.57-3.45,1.87-5.02.68l-4.32-3.31c-1.57-1.19-1.89-3.43-.68-5l6.04-7.96c1.19-1.57,3.45-1.87,5.02-.68l4.32,3.29c1.57,1.21,1.89,3.45.68,5.02l-6.04,7.96ZM273.72,170.16l-3.85-3.85c-1.4-1.4-1.4-3.66,0-5.06l7.07-7.07c1.4-1.4,3.66-1.4,5.06,0l3.85,3.85c1.4,1.4,1.4,3.66,0,5.06l-7.07,7.07c-1.4,1.4-3.66,1.4-5.06,0ZM288.7,185.15l-3.83-3.85c-1.4-1.4-1.4-3.67,0-5.07l7.05-7.05c1.4-1.4,3.67-1.4,5.07,0l3.85,3.85c1.38,1.38,1.38,3.66,0,5.06l-7.07,7.07c-1.4,1.38-3.67,1.38-5.07,0ZM303.74,200.18l-3.85-3.85c-1.4-1.38-1.4-3.66,0-5.06l7.07-7.07c1.4-1.38,3.66-1.38,5.06,0l3.85,3.85c1.4,1.4,1.4,3.67,0,5.07l-7.07,7.05c-1.38,1.4-3.66,1.4-5.06,0ZM318.73,215.17l-3.85-3.85c-1.4-1.4-1.4-3.66,0-5.06l7.07-7.07c1.4-1.4,3.66-1.4,5.06,0l3.85,3.85c1.4,1.4,1.4,3.66,0,5.06l-7.07,7.07c-1.4,1.4-3.66,1.4-5.06,0ZM345.94,223.19l-7.07,7.07c-1.38,1.4-3.66,1.4-5.06,0l-3.85-3.85c-1.4-1.4-1.4-3.66,0-5.06l7.07-7.07c1.4-1.4,3.66-1.4,5.06,0l3.85,3.85c1.4,1.4,1.4,3.67,0,5.06Z"/>
    <path class="cls-2" d="M412.7,311.92c-7.14,9.36-11.76,14.15-13.02,15.41-2.2,2.2-9.08,8.85-17.27,14.1-17.93,11.51-36.9,12.96-45.03,13.51-22.81,1.49-39.99-4.74-48.63-7.99-15.03-5.63-25.16-12.35-34.92-19.59-11.14-8.27-23.91-19.03-36.83-32.8-8.53-9.07-15.74-17.98-21.82-26.3-4.11-5.63-12.13-6.65-17.41-2.1-.04.03-.08.07-.12.1.14.14.26.28.38.42l3.39,4.27c1.22,1.54.98,3.8-.58,5.02l-7.8,6.23c-1.56,1.22-3.8.98-5.04-.58l-2.82-3.53c-3.08,3.2-6.63,7.19-10.2,12-5,6.74-11.88,16.01-15.71,29.2-5.06,17.34-2.13,32.03-.45,39.97,4.09,19.35,13.47,32.85,18.58,38.33,6.14,6.61,11.67,10.32,18.25,14.22,10.44,6.19,25.75,13.54,45.31,17.41,9.87,1.96,18.86,2.64,26.57,2.71,30.44-.61,50.24-5.48,66.72-11.18,23.18-8.01,36.65-17.49,36.65-17.49,16.65-10.08,30.23-24.42,39.36-35.78l-5.13-8.91c-.79-1.36-.32-3.11,1.04-3.9l5.97-3.46c1.36-.77,3.11-.31,3.9,1.05l2.45,4.25c3.06-4.41,4.71-7.17,4.71-7.17,8.16-11.68,14.03-23.71,18.19-34.22,1.95-4.93-4.61-8.64-7.79-4.39-.3.4-.61.8-.91,1.21ZM181.75,297.85l-3.59-4.09c-1.29-1.49-1.15-3.74.35-5.04l7.51-6.58c1.49-1.31,3.74-1.15,5.06.33l3.59,4.09c1.29,1.49,1.14,3.74-.35,5.04l-7.51,6.58c-1.49,1.31-3.74,1.15-5.06-.33ZM195.71,313.81l-3.59-4.09c-1.29-1.49-1.15-3.74.33-5.06l7.52-6.58c1.49-1.29,3.74-1.15,5.06.33l3.57,4.09c1.31,1.49,1.15,3.76-.33,5.06l-7.51,6.58c-1.49,1.29-3.76,1.15-5.06-.33ZM216.13,329.29c-1.4,1.4-3.67,1.4-5.07,0l-3.85-3.85c-1.38-1.4-1.38-3.67,0-5.07l7.07-7.05c1.4-1.4,3.67-1.4,5.06,0l3.85,3.85c1.4,1.4,1.4,3.66,0,5.06l-7.05,7.07ZM238.54,335.06l-6.19,7.84c-1.21,1.56-3.46,1.82-5.02.61l-4.27-3.38c-1.56-1.22-1.82-3.46-.59-5.02l6.18-7.85c1.22-1.54,3.46-1.82,5.02-.59l4.27,3.36c1.56,1.22,1.82,3.48.61,5.04ZM256.03,347.17l-5.62,8.26c-1.1,1.64-3.34,2.06-4.97.96l-4.5-3.06c-1.64-1.12-2.06-3.34-.94-4.99l5.62-8.26c1.1-1.63,3.34-2.05,4.97-.94l4.5,3.06c1.64,1.12,2.06,3.34.94,4.97ZM274.68,357.44l-4.39,8.97c-.86,1.77-3.01,2.5-4.78,1.64l-4.9-2.4c-1.77-.87-2.5-3.01-1.63-4.79l4.37-8.97c.87-1.77,3.03-2.5,4.79-1.63l4.88,2.38c1.78.87,2.52,3.01,1.64,4.79ZM294.05,364.4l-3.08,9.5c-.59,1.89-2.62,2.92-4.5,2.31l-5.18-1.68c-1.89-.61-2.92-2.62-2.31-4.5l3.08-9.52c.59-1.87,2.62-2.9,4.5-2.29l5.18,1.66c1.89.61,2.92,2.62,2.31,4.51ZM314.41,369.44l-1.7,9.85c-.33,1.96-2.17,3.25-4.13,2.92l-5.35-.91c-1.94-.33-3.25-2.19-2.92-4.13l1.68-9.85c.33-1.94,2.17-3.25,4.13-2.92l5.35.91c1.96.33,3.27,2.19,2.94,4.13ZM335.46,381.42c0,1.57-1.28,2.85-2.85,2.85h-6.89c-1.57,0-2.85-1.28-2.85-2.85v-11.46c0-1.57,1.28-2.85,2.85-2.85h6.89c1.57,0,2.85,1.28,2.85,2.85v11.46ZM355.51,382.07l-6.86.75c-1.56.17-2.97-.94-3.15-2.52l-1.26-11.37c-.17-1.56.96-2.97,2.52-3.15l6.86-.75c1.57-.18,2.97.94,3.15,2.5l1.26,11.39c.17,1.56-.94,2.97-2.52,3.15ZM379.6,377.31l-6.51,2.31c-1.49.52-3.11-.24-3.64-1.73l-3.81-10.79c-.52-1.49.24-3.11,1.73-3.64l6.51-2.29c1.47-.52,3.1.24,3.62,1.73l3.83,10.79c.52,1.47-.24,3.1-1.73,3.62Z"/>
    <path class="cls-2" d="M252.1,180.51l-3.79,3c-1.56,1.24-3.85.97-5.09-.58l-6.2-7.78c-1.22-1.54-.98-3.8.58-5.02l.56-.45c-1.99-1.22-3.17-1.82-3.17-1.82-.73-.05-7.92-7.02-26.57-11.86-.07-.04-7.35-1.8-7.44-1.82-16.2-3.1-22.8-2.55-22.8-2.55-21.55.96-33.4,8.68-33.4,8.68-4.83,2.38-10.36,5.56-16.13,9.81-4.46,3.27-8.24,6.58-11.39,9.67-8.03,6.95-16.29,14.47-24.67,22.59-4.98,4.82-9.75,9.6-14.31,14.32-5.99,6.2-9.78,14.18-10.69,22.75v.09c-.36,3.46-.38,6.61-.22,9.38-.8,17.34,3.81,35.16,3.81,35.16,5.72,27.4,12.7,40.9,12.7,40.9,3.6,9.11,10.64,20.24,16.69,28.99v-2.57c0-2,1.62-3.62,3.62-3.62h9.89c2.01,0,3.64,1.63,3.64,3.64v5.32c0,2.01-1.63,3.64-3.64,3.64h-8.86s-.06.05-.04.08c3.61,4.97,6.19,8.21,6.19,8.21.35.47.73.96,1.17,1.47l4.18-1.14c1.91-.52,3.88.59,4.39,2.5l1.45,5.25c.29,1.07.06,2.18-.54,3.01-.01.02-.01.04,0,.06,1.44,1.31,2.93,2.62,4.43,3.91,4.03,3.46,10.06-.71,8.15-5.67-3.37-8.78-4.92-16-4.92-16-6.84-23.42-.23-42.69-.23-42.69,6.12-19.7,12.35-27.17,12.35-27.17,8.5-12.07,12.58-16.5,12.58-16.5,4.27-5.25,12.68-12.6,12.68-12.6,17.18-14.19,23.48-18.98,23.48-18.98l61.08-49.18c4.53-3.65,4.77-10.46.51-14.42h0s-.05-.02-.07,0ZM114.93,335.7c-.21,1.99-2,3.43-3.99,3.22l-9.89-1.04c-1.96-.21-3.38-1.96-3.18-3.94l.57-5.36c.21-1.99,2-3.44,4-3.23l9.88,1.04c1.96.21,3.38,1.96,3.18,3.94l-.57,5.36ZM120.42,310.08l-1.41,5.15c-.53,1.93-2.52,3.07-4.45,2.55l-9.55-2.58c-1.93-.52-3.08-2.52-2.55-4.45l1.42-5.2c.51-1.92,2.47-3.04,4.39-2.52l9.59,2.59c1.94.52,3.08,2.52,2.55,4.46ZM128.19,291.13l-2.7,4.68c-1,1.73-3.2,2.32-4.93,1.32l-8.59-4.95c-1.73-1-2.33-3.22-1.33-4.95l2.68-4.64c1-1.72,3.22-2.32,4.95-1.32l8.62,4.98c1.71.98,2.29,3.17,1.31,4.88ZM140.33,275.14l-3.66,3.95c-1.36,1.47-3.66,1.56-5.13.21l-7.27-6.68c-1.48-1.36-1.57-3.65-.21-5.13l3.62-3.93c1.36-1.47,3.66-1.57,5.13-.21l7.31,6.73c1.45,1.33,1.54,3.59.21,5.06ZM154.31,259.28l-3.76,3.78c-1.42,1.42-3.72,1.43-5.14,0l-6.98-7c-1.41-1.42-1.41-3.71,0-5.13l3.75-3.77c1.41-1.42,3.73-1.42,5.15,0l6.97,6.97c1.42,1.42,1.42,3.73,0,5.15ZM169.47,246.31l-4.25,3.39c-1.56,1.22-3.8.96-5.04-.58l-6.21-7.82c-1.24-1.54-.98-3.8.56-5.02l4.21-3.36c1.57-1.25,3.85-.99,5.1.57l6.21,7.78c1.22,1.56.96,3.8-.58,5.04ZM186.06,233.11l-4.27,3.39c-1.54,1.22-3.8.98-5.02-.58l-6.23-7.8c-1.22-1.56-.98-3.8.58-5.04l4.23-3.36c1.56-1.24,3.83-.98,5.08.58l6.2,7.78c1.24,1.54.98,3.8-.56,5.02ZM202.69,219.86l-4.27,3.38c-1.54,1.24-3.8.98-5.02-.56l-6.19-7.77c-1.25-1.57-.99-3.85.58-5.1l4.21-3.36c1.54-1.22,3.8-.98,5.02.58l6.23,7.8c1.24,1.56.98,3.8-.56,5.04ZM219.26,206.65l-4.21,3.36c-1.56,1.25-3.84.99-5.08-.57l-6.21-7.79c-1.24-1.54-.98-3.8.56-5.02l4.27-3.39c1.54-1.22,3.8-.98,5.02.58l6.23,7.8c1.22,1.56.98,3.81-.58,5.04ZM235.92,193.38l-4.18,3.33c-1.57,1.26-3.87,1-5.12-.58l-6.15-7.72c-1.25-1.58-.99-3.87.58-5.12l4.17-3.32c1.56-1.24,3.84-.98,5.09.58l6.17,7.75c1.24,1.55.98,3.84-.57,5.08Z"/>
  </g>
</svg>